# Blender 4.4.3
# www.blender.org
mtllib Desna_nadlaktica.mtl
o Desna_nadlaktica
v -0.183687 1.307202 -0.001963
v -0.250520 1.308740 0.003202
v -0.242364 1.307418 -0.014367
v -0.251097 1.296117 -0.000922
v -0.216776 1.316554 0.002111
v -0.215831 1.318223 -0.009702
v -0.210787 1.304288 -0.002107
v -0.219987 1.295563 -0.034606
v -0.191673 1.301943 -0.036118
v -0.259194 1.293298 0.025931
v -0.296436 1.296571 -0.001241
v -0.295116 1.287676 0.016618
v -0.332883 1.290493 -0.001086
v -0.331865 1.285611 0.011118
v -0.349655 1.289273 -0.002874
v -0.348173 1.282425 0.013427
v -0.358174 1.288911 -0.008981
v -0.357738 1.279344 0.016888
v -0.125482 1.270114 -0.006009
v -0.129445 1.288611 -0.020290
v -0.124773 1.287572 0.027998
v -0.130980 1.269880 0.014199
v -0.153208 1.272896 -0.013162
v -0.154653 1.302075 -0.019320
v -0.146704 1.289414 0.020327
v -0.154158 1.267420 0.010461
v -0.180768 1.272236 -0.015366
v -0.186984 1.296546 -0.017119
v -0.175814 1.281525 0.020125
v -0.181529 1.263463 0.010461
v -0.163943 1.300931 0.015597
v -0.226551 1.288703 -0.014757
v -0.222258 1.288286 0.020816
v -0.220976 1.271106 0.021661
v -0.255480 1.266208 -0.018682
v -0.256057 1.256415 0.010512
v -0.294460 1.289256 -0.003778
v -0.290521 1.269702 -0.018832
v -0.293451 1.281816 0.011662
v -0.291296 1.262405 0.017953
v -0.289682 1.253841 -0.007628
v -0.330562 1.282647 -0.003506
v -0.326280 1.252907 -0.015607
v -0.327103 1.276853 -0.014570
v -0.329451 1.276807 0.008655
v -0.327120 1.254271 0.008518
v -0.348790 1.278402 -0.004728
v -0.354712 1.249335 -0.014912
v -0.355402 1.265448 -0.015873
v -0.347574 1.274664 0.005694
v -0.346601 1.256512 0.012395
v -0.345497 1.248919 0.000914
v -0.357106 1.276893 -0.009122
v -0.357417 1.273120 0.010091
v -0.355416 1.250478 0.006936
v -0.250520 1.308740 0.003202
v -0.242364 1.307418 -0.014367
v -0.238902 1.295856 -0.007748
v -0.251097 1.296117 -0.000922
v -0.216776 1.316554 0.002111
v -0.219987 1.295563 -0.034606
v -0.259194 1.293298 0.025931
v -0.226611 1.299323 0.032814
v -0.296436 1.296571 -0.001241
v -0.295116 1.287676 0.016618
v -0.180768 1.272236 -0.015366
v -0.186984 1.296546 -0.017119
v -0.175814 1.281525 0.020125
v -0.181529 1.263463 0.010461
v -0.226551 1.288703 -0.014757
v -0.222258 1.288286 0.020816
v -0.220976 1.271106 0.021661
v -0.222333 1.259108 0.000346
v -0.255480 1.266208 -0.018682
v -0.256422 1.285433 -0.014147
v -0.255696 1.283582 0.017810
v -0.256057 1.256415 0.010512
v -0.294460 1.289256 -0.003778
v -0.290521 1.269702 -0.018832
v -0.293451 1.281816 0.011662
v -0.291296 1.262405 0.017953
v -0.289682 1.253841 -0.007628
v -0.216776 1.316554 0.002111
v -0.215831 1.318223 -0.009702
v -0.210787 1.304288 -0.002107
v -0.125482 1.270114 -0.006009
v -0.129445 1.288611 -0.020290
v -0.153208 1.272896 -0.013162
v -0.180768 1.272236 -0.015366
v -0.181529 1.263463 0.010461
v -0.222333 1.259108 0.000346
vn -0.2900 0.9538 -0.0785
vn -0.3543 0.9258 0.1319
vn -0.3378 0.9411 0.0137
vn -0.1954 0.7414 -0.6420
vn 0.6212 0.7243 0.2992
vn 0.6212 0.7243 0.2991
vn 0.1858 -0.9334 -0.3069
vn 0.1938 -0.9281 -0.3180
vn 0.1806 -0.9404 -0.2880
vn 0.8578 0.1619 0.4877
vn 0.8130 0.2667 0.5177
vn 0.9001 0.1053 0.4229
vn 0.0097 0.3210 -0.9470
vn 0.0043 0.3301 -0.9439
vn 0.0098 0.3175 -0.9482
vn -0.2642 0.8532 0.4498
vn -0.2705 0.8558 0.4409
vn -0.2618 0.8479 0.4610
vn -0.0908 -0.6580 0.7475
vn -0.0573 0.2955 -0.9536
vn -0.1306 0.8974 0.4214
vn -0.1306 0.8974 0.4215
vn -0.0583 -0.4635 0.8842
vn -0.0583 -0.4635 0.8841
vn -0.0583 -0.4636 0.8841
vn 0.0477 0.2301 -0.9720
vn 0.0476 0.2301 -0.9720
vn -0.1158 0.9149 0.3867
vn -0.1158 0.9149 0.3866
vn 0.0635 -0.5147 0.8550
vn 0.0634 -0.5147 0.8550
vn 0.5161 0.1176 -0.8484
vn 0.4141 -0.6426 0.6447
vn 0.4142 -0.6425 0.6447
vn 0.4141 -0.6425 0.6447
vn -0.2252 0.9044 0.3623
vn -0.2252 0.9045 0.3623
vn -0.2251 0.9045 0.3623
vn -0.9974 -0.0692 -0.0177
vn -0.0391 -0.9731 -0.2272
vn -0.1500 -0.2113 -0.9658
vn -0.1085 -0.3760 0.9202
vn 0.0483 -0.9462 -0.3200
vn -0.0531 -0.0853 -0.9949
vn -0.0480 -0.0841 -0.9953
vn -0.0529 -0.0853 -0.9950
vn 0.0705 -0.4878 0.8701
vn -0.0856 0.8237 -0.5606
vn -0.1458 0.8683 0.4741
vn 0.0439 0.2015 0.9785
vn -0.0430 -0.0828 -0.9956
vn -0.0952 -0.9458 0.3106
vn 0.1281 -0.9380 0.3221
vn -0.1080 0.0393 -0.9934
vn -0.1201 0.2940 0.9482
vn 0.0131 -0.9983 0.0569
vn -0.1599 0.8531 -0.4967
vn -0.1644 0.8518 -0.4974
vn -0.1601 0.8530 -0.4968
vn 0.0141 -0.8334 0.5525
vn 0.0282 0.0442 -0.9986
vn -0.1902 0.3310 0.9243
vn 0.1896 -0.9817 -0.0164
vn 0.1896 -0.9817 -0.0165
vn -0.1650 0.8516 -0.4975
vn 0.2092 -0.8063 0.5534
vn -0.0889 0.0798 0.9928
vn -0.0890 0.0798 0.9928
vn -0.1267 -0.9908 0.0478
vn 0.3252 0.5159 -0.7925
vn -0.0806 0.2730 0.9586
vn 0.1448 -0.5020 0.8527
vn 0.1968 0.0144 0.9803
vn -0.2479 -0.0315 0.9683
vn -0.0929 0.8377 0.5382
vn -0.1775 0.8228 -0.5399
vn 0.0829 -0.2018 -0.9759
vn 0.1396 -0.9658 -0.2183
vn -0.0541 -0.5780 -0.8142
vn 0.1901 -0.5597 -0.8066
vn 0.0279 0.6133 -0.7894
vn -0.2522 0.7019 -0.6662
vn -0.0168 -0.0603 -0.9980
vn -0.3219 -0.5095 0.7980
vn 0.1126 -0.4382 0.8918
vn 0.1029 -0.9946 0.0165
vn -0.7635 -0.1558 -0.6268
vn -0.7635 -0.1557 -0.6268
vn -0.2552 0.9573 -0.1357
vn -0.2899 0.9538 -0.0786
vn -0.2692 0.9257 -0.2657
vn -0.6784 -0.5634 -0.4716
vn 0.1691 -0.9501 -0.2621
vn 0.1766 -0.9453 -0.2743
vn -0.2198 0.8643 0.4524
vn -0.2199 0.8643 0.4524
vn 0.9263 0.0651 0.3712
vn 0.9462 -0.0627 0.3174
vn 0.9001 0.1052 0.4228
vn 0.0053 -0.6950 0.7190
vn 0.0099 0.3155 -0.9489
vn 0.0188 0.3071 -0.9515
vn 0.0098 0.3174 -0.9482
vn -0.2582 0.8433 0.4714
vn -0.2537 0.8392 0.4810
vn -0.0910 -0.6578 0.7477
vn -0.1796 -0.4674 -0.8656
vn 0.0222 0.0508 0.9985
vn -0.0290 -0.8703 0.4917
vn 0.2100 -0.8577 0.4694
vn -0.0447 0.2273 -0.9728
vn -0.0953 0.0418 0.9946
vn 0.4016 -0.3702 -0.8377
vn -0.1717 0.7087 -0.6843
vn -0.1716 0.7087 -0.6844
vn 0.0272 0.2308 -0.9726
vn -0.1670 0.2872 0.9432
vn 0.2352 -0.9229 -0.3049
vn -0.0854 0.7916 -0.6051
vn 0.1574 -0.2581 0.9532
vn -0.1957 -0.2520 0.9477
vn -0.0203 -0.9478 -0.3183
vn -0.1589 0.5820 -0.7975
vn 0.9079 0.3989 0.1290
vn 0.1769 -0.9335 -0.3119
vn 0.1472 -0.5845 -0.7979
vt 0.082819 0.861433
vt 0.201067 0.310410
vt 0.840625 0.584375
vt 0.637325 0.639892
vt 0.636288 0.640468
vt 0.635455 0.641366
vt 0.643511 0.560558
vt 0.644453 0.560583
vt 0.635751 0.641723
vt 0.647136 0.558348
vt 0.647983 0.557231
vt 0.634350 0.645949
vt 0.647722 0.556981
vt 0.633582 0.645644
vt 0.648812 0.555913
vt 0.633277 0.647066
vt 0.648081 0.555321
vt 0.634128 0.647580
vt 0.632997 0.647055
vt 0.649413 0.555393
vt 0.649174 0.555182
vt 0.649606 0.555061
vt 0.632734 0.647788
vt 0.643738 0.559726
vt 0.635262 0.644804
vt 0.643715 0.562601
vt 0.636737 0.642057
vt 0.646282 0.559466
vt 0.635132 0.643283
vt 0.645834 0.559241
vt 0.634572 0.644401
vt 0.646183 0.557745
vt 0.634321 0.643973
vt 0.636256 0.643807
s 1
usemtl lpRobot
f 6/1/1 3/1/2 5/1/3
f 8/1/4 6/1/4 9/1/4
f 6/1/4 8/1/4 3/1/4
f 7/2/5 28/2/5 6/2/5
f 6/2/5 28/2/5 9/2/6
f 28/2/7 8/2/8 9/2/9
f 5/2/10 33/2/11 7/2/12
f 11/2/13 4/2/14 37/2/15
f 12/1/16 2/1/17 11/1/18
f 39/2/19 10/2/19 12/2/19
f 37/2/20 42/2/20 11/2/20
f 13/2/20 11/2/20 42/2/20
f 11/1/21 14/1/21 12/1/22
f 14/1/21 11/1/21 13/1/21
f 45/2/23 12/2/24 14/2/23
f 12/2/24 45/2/23 39/2/25
f 15/2/26 13/2/26 47/2/26
f 13/2/26 42/2/27 47/2/26
f 13/1/28 16/1/28 14/1/29
f 16/1/28 13/1/28 15/1/28
f 50/2/30 14/2/30 16/2/30
f 14/2/30 50/2/30 45/2/31
f 17/2/32 47/2/32 53/2/32
f 47/2/32 17/2/32 15/2/32
f 18/2/33 50/2/34 16/2/35
f 50/2/34 18/2/33 54/2/33
f 17/1/36 18/1/37 15/1/36
f 18/1/37 16/1/38 15/1/36
f 17/2/39 54/2/39 18/2/39
f 54/2/39 17/2/39 53/2/39
f 19/3/40 26/3/40 23/3/40
f 20/4/41 23/4/41 24/4/41
f 22/3/42 25/3/42 26/3/42
f 23/3/43 30/3/43 27/3/43
f 24/5/44 27/5/45 28/5/46
f 26/3/47 29/3/47 30/3/47
f 1/6/48 28/6/48 7/6/48
f 31/7/49 1/7/49 33/7/49
f 29/8/50 31/8/50 33/8/50
f 28/9/46 27/9/45 32/9/51
f 36/10/52 40/10/52 41/10/52
f 41/11/53 40/11/53 46/11/53
f 38/12/54 43/12/54 44/12/54
f 40/13/55 39/13/55 45/13/55
f 41/11/56 46/11/56 43/11/56
f 37/14/57 44/14/58 42/14/59
f 46/15/60 51/15/60 52/15/60
f 44/16/61 43/16/61 49/16/61
f 45/17/62 50/17/62 51/17/62
f 52/18/63 43/18/63 46/18/63
f 43/18/63 52/18/63 48/18/64
f 42/19/59 44/19/58 47/19/65
f 52/20/66 51/20/66 55/20/66
f 54/21/67 51/21/68 50/21/68
f 54/21/67 55/21/68 51/21/68
f 48/22/69 52/22/69 55/22/69
f 47/23/70 49/23/70 53/23/70
f 29/8/71 25/8/71 31/8/71
f 34/3/72 30/3/72 29/3/72
f 51/21/73 46/21/73 45/21/73
f 45/17/74 46/17/74 40/17/74
f 1/24/75 7/24/75 33/24/75
f 1/6/76 24/6/76 28/6/76
f 24/5/77 23/5/77 27/5/77
f 23/3/78 26/3/78 30/3/78
f 35/25/79 41/25/79 38/25/79
f 38/12/80 41/12/80 43/12/80
f 37/14/81 38/14/81 44/14/81
f 44/16/82 49/16/82 47/16/82
f 43/18/83 48/18/83 49/18/83
f 22/3/84 21/3/84 25/3/84
f 26/3/85 25/3/85 29/3/85
f 19/26/86 22/26/86 26/26/86
f 58/2/87 56/2/88 57/2/88
f 56/2/88 58/2/87 59/2/87
f 57/1/89 56/1/90 60/1/91
f 57/2/92 70/2/92 58/2/92
f 70/2/92 57/2/92 61/2/92
f 67/2/93 70/2/9 61/2/94
f 56/1/95 63/1/96 60/1/95
f 63/1/96 56/1/95 62/1/95
f 71/2/97 60/2/98 63/2/99
f 76/2/100 63/2/100 62/2/100
f 63/2/100 76/2/100 71/2/100
f 59/2/101 64/2/102 56/2/103
f 56/1/104 65/1/105 62/1/18
f 62/2/106 80/2/106 76/2/106
f 66/27/107 73/27/107 70/27/107
f 68/8/108 71/8/108 72/8/108
f 69/3/109 72/3/109 73/3/109
f 73/28/110 72/28/110 77/28/110
f 70/29/111 74/29/111 75/29/111
f 72/30/112 71/30/112 76/30/112
f 70/29/113 73/29/113 74/29/113
f 75/29/114 58/29/114 70/29/115
f 58/29/114 75/29/114 59/29/114
f 75/31/116 74/31/116 79/31/116
f 76/32/117 80/32/117 81/32/117
f 74/25/118 77/25/118 82/25/118
f 59/33/119 75/33/119 78/33/119
f 81/13/120 77/13/120 76/13/120
f 76/32/121 77/32/121 72/32/121
f 73/34/122 77/34/122 74/34/122
f 75/31/123 79/31/123 78/31/123
f 84/2/124 83/2/124 85/2/124
f 91/3/125 89/3/125 90/3/125
f 87/4/126 86/4/126 88/4/126
