# Blender 4.4.3
# www.blender.org
mtllib Desni_lakat.mtl
o Desni_lakat
v -0.393985 1.278287 0.012663
v -0.392741 1.278091 -0.012142
v -0.390406 1.256119 -0.023745
v -0.389877 1.234406 -0.008242
v -0.388963 1.234445 0.012780
v -0.391440 1.255577 0.026663
v -0.354712 1.249335 -0.014912
v -0.355402 1.265448 -0.015873
v -0.357106 1.276893 -0.009122
v -0.357417 1.273120 0.010091
v -0.355416 1.250478 0.006936
v -0.372208 1.243521 -0.009811
v -0.373048 1.272251 -0.012993
v -0.374370 1.278788 0.006586
v -0.376939 1.256998 0.020456
v -0.371077 1.240505 0.008641
vn 0.2758 0.9423 0.1895
vn 0.3740 -0.4486 0.8117
vn -0.2230 -0.0973 -0.9700
vn -0.2230 -0.0972 -0.9700
vn 0.0049 0.5366 0.8438
vn 0.3305 -0.9419 0.0599
vn 0.0583 0.5136 -0.8560
vn 0.2606 0.9209 -0.2899
vn 0.3852 -0.4747 0.7913
vn 0.2199 -0.5633 -0.7964
vn 0.2446 0.5000 0.8307
vn 0.4397 -0.8817 -0.1711
vn 0.1025 0.4730 -0.8751
vn -0.1917 0.9270 -0.3224
vn 0.5144 -0.0736 0.8544
vn -0.0284 0.9996 -0.0093
vn 0.2907 0.5255 0.7996
vn 0.5737 -0.0736 -0.8158
vn 0.3456 -0.4622 0.8166
vn 0.5163 -0.8396 -0.1689
vn 0.3184 -0.9479 -0.0121
vt 0.648840 0.554428
vt 0.649582 0.555010
vt 0.633035 0.648313
vt 0.649606 0.555061
vt 0.632599 0.648113
vt 0.632144 0.648674
vt 0.649841 0.554111
vt 0.633419 0.649397
vt 0.632401 0.648775
vt 0.631754 0.649331
vt 0.649485 0.553033
vt 0.632571 0.649748
vt 0.650896 0.554202
vt 0.633556 0.648653
vt 0.633549 0.649426
s 1
usemtl lpRobot
f 10/1/1 9/1/1 14/1/1
f 11/2/2 15/2/2 16/2/2
f 13/3/3 8/3/4 12/3/4
f 8/3/4 7/3/4 12/3/4
f 10/1/5 14/1/5 15/1/5
f 7/4/6 11/4/6 12/4/6
f 9/5/7 8/5/7 13/5/7
f 14/6/8 13/6/8 2/6/8
f 15/7/9 6/7/9 5/7/9
f 12/8/10 4/8/10 3/8/10
f 15/7/11 14/7/11 1/7/11
f 12/8/12 16/8/12 4/8/12
f 13/9/13 3/9/13 2/9/13
f 9/5/14 13/5/14 14/5/14
f 15/7/15 11/7/15 10/7/15
f 2/10/16 1/10/16 14/10/16
f 1/11/17 6/11/17 15/11/17
f 3/12/18 13/12/18 12/12/18
f 5/13/19 16/13/19 15/13/19
f 11/14/20 16/14/20 12/14/20
f 16/15/21 5/15/21 4/15/21
