# Blender 4.4.3
# www.blender.org
mtllib Desna_podkoljenica.mtl
o Desna_podkoljenica
v -0.097978 0.453592 -0.009149
v -0.145819 0.260801 0.018528
v -0.156275 0.197326 0.006842
v -0.141345 0.186874 -0.036097
v -0.129317 0.232438 -0.032090
v -0.125370 0.344503 0.022089
v -0.169778 0.357399 0.023543
v -0.117226 0.381739 0.022089
v -0.161634 0.394635 0.023543
v -0.080378 0.371144 -0.035265
v -0.081042 0.406572 -0.023805
v -0.104438 0.419116 -0.089326
v -0.099020 0.442759 -0.068821
v -0.158167 0.429205 -0.089545
v -0.152919 0.452111 -0.069271
v -0.195577 0.401357 -0.030103
v -0.184361 0.430025 -0.021138
v -0.150539 0.241921 -0.073526
v -0.162789 0.193629 -0.073175
v -0.165211 0.168327 -0.073175
v -0.191051 0.247291 -0.064412
v -0.194768 0.205706 -0.064062
v -0.202797 0.181023 -0.064062
v -0.157736 0.176100 0.008276
v -0.143136 0.163036 -0.036119
v -0.208877 0.239263 -0.025983
v -0.212826 0.213090 -0.025592
v -0.217288 0.189615 -0.025804
v -0.179259 0.265447 0.016208
v -0.184528 0.208752 0.011534
v -0.187014 0.187889 0.012459
v -0.151300 0.315223 -0.099780
v -0.161278 0.316786 -0.095406
v -0.120877 0.390266 0.010865
v -0.154808 0.400120 0.011976
v -0.093229 0.409241 -0.024201
v -0.106966 0.436891 -0.058598
v -0.148149 0.444036 -0.058942
v -0.172174 0.427161 -0.022164
v -0.092496 0.371830 -0.034504
v -0.111427 0.408474 -0.070621
v -0.153704 0.416412 -0.070794
v -0.183139 0.399864 -0.032497
v -0.166308 0.359178 0.012388
v -0.150653 0.257678 0.003692
v -0.139827 0.235564 -0.031331
v -0.150806 0.241917 -0.059914
v -0.197225 0.242089 -0.025672
v -0.189415 0.247378 -0.051522
v -0.169056 0.168565 -0.062002
v -0.196454 0.180357 -0.055248
v -0.163603 0.175005 -0.001918
v -0.152584 0.165388 -0.034645
v -0.207182 0.188617 -0.026921
v -0.184652 0.185729 0.001181
v -0.229773 0.126103 -0.053728
v -0.230549 0.129718 -0.017833
v -0.226628 0.151031 -0.017245
v -0.226513 0.146680 -0.052496
v -0.225041 0.157450 -0.034143
v -0.231671 0.118586 -0.036378
v -0.212932 0.124737 -0.053776
v -0.217007 0.128216 -0.017838
v -0.209852 0.145242 -0.052505
v -0.218365 0.117245 -0.036434
v -0.232471 0.138910 -0.035214
v -0.200621 0.000101 -0.089905
v -0.205493 0.059296 -0.095114
v -0.155034 0.059868 -0.091443
v -0.158370 0.000101 -0.086271
v -0.194921 0.105331 -0.085164
v -0.165175 0.106054 -0.081457
v -0.241231 0.000106 -0.051149
v -0.246900 0.049665 -0.052508
v -0.238722 0.083089 -0.049203
v -0.242825 0.006784 0.011707
v -0.246839 0.047442 -0.011553
v -0.238367 0.072043 -0.024801
v -0.124641 0.045808 -0.047250
v -0.126953 0.000104 -0.043428
v -0.127878 0.078912 -0.036827
v -0.126985 0.037034 0.011012
v -0.127321 0.014718 0.026486
v -0.127509 0.054539 0.012647
v -0.246115 0.005516 0.067385
v -0.249931 0.036757 0.049551
v -0.244949 0.056851 0.038388
v -0.247527 0.000254 0.129750
v -0.250761 0.029323 0.115532
v -0.243052 0.055509 0.109005
v -0.213117 0.000254 0.208969
v -0.212637 0.030264 0.202659
v -0.207187 0.047185 0.190213
v -0.142374 0.000254 0.201026
v -0.142574 0.029896 0.200186
v -0.150891 0.048972 0.194032
v -0.114518 0.000254 0.145426
v -0.114718 0.029896 0.144586
v -0.123036 0.057685 0.142211
v -0.162257 0.084770 0.136822
v -0.195822 0.083481 0.126676
v -0.159567 0.126549 0.039569
v -0.202324 0.129303 0.039924
v -0.196166 0.097685 0.063148
v -0.163509 0.095821 0.063120
v -0.137460 0.131609 0.008729
v -0.128237 0.102360 0.004204
v -0.141217 0.138220 -0.041610
v -0.135648 0.120221 -0.047205
v -0.166668 0.120371 0.019010
v -0.200439 0.118584 0.013119
v -0.199507 0.092881 0.049507
v -0.171118 0.088056 0.051062
v -0.155257 0.129382 -0.002540
v -0.138413 0.096359 -0.004191
v -0.146159 0.117983 -0.049823
v -0.192885 0.101991 -0.068994
v -0.168246 0.102409 -0.065824
v -0.229223 0.084460 -0.039148
v -0.137140 0.080728 -0.028889
v -0.234353 0.047571 -0.011584
v -0.227548 0.074168 -0.018147
v -0.139658 0.037081 0.011026
v -0.138804 0.057751 0.012432
v -0.227762 0.044791 0.101602
v -0.135685 0.051484 0.136277
v -0.166367 0.065878 0.131183
v -0.192381 0.065276 0.120224
v -0.126380 0.029896 0.137769
v -0.232006 0.031923 0.051815
v -0.232772 0.049014 0.042795
v -0.193514 0.000103 -0.074199
v -0.162720 0.000102 -0.071413
v -0.227866 0.000107 -0.044238
v -0.228222 0.006375 0.013302
v -0.140986 0.000105 -0.036753
v -0.141136 0.013194 0.025964
v -0.137209 0.042959 0.070893
v -0.144209 0.073963 0.083276
v -0.136797 0.009858 0.074920
v -0.228909 0.005406 0.065013
v -0.231383 0.000254 0.126030
v -0.205107 0.000254 0.186521
v -0.151089 0.000254 0.180455
v -0.126181 0.000254 0.138609
v -0.099456 0.463352 -0.033326
v -0.141978 0.472459 -0.031541
v -0.151138 0.472253 -0.001998
v -0.132594 0.457821 0.022248
v -0.097088 0.468181 0.017833
v -0.164077 0.328801 -0.076890
v -0.200313 0.310356 -0.032602
v -0.180394 0.262534 0.003337
v -0.144634 0.322426 -0.081264
v -0.126634 0.345136 0.010280
v -0.111974 0.312685 -0.033620
v -0.183018 0.141448 -0.062567
v -0.151227 0.136320 -0.042135
v -0.212152 0.156398 -0.034235
v -0.195422 0.163613 0.000902
v -0.213461 0.150102 -0.017312
vn 0.0028 -0.1353 0.9908
vn 0.0029 -0.1353 0.9908
vn 0.8859 -0.2399 0.3971
vn 0.8859 -0.2398 0.3971
vn -0.0241 -0.0578 0.9980
vn 0.0308 -0.0067 0.9995
vn 0.8142 -0.1713 0.5547
vn 0.8142 -0.1712 0.5547
vn 0.8142 -0.1714 0.5547
vn 0.9431 0.0964 -0.3183
vn 0.9431 0.0963 -0.3183
vn 0.1201 0.6385 -0.7602
vn -0.8324 0.4495 -0.3241
vn -0.8234 0.1681 0.5420
vn 0.8433 -0.1987 -0.4994
vn 0.8549 -0.0730 -0.5137
vn 0.8549 -0.0731 -0.5137
vn -0.2359 0.0343 -0.9712
vn -0.2366 0.0494 -0.9703
vn -0.2366 0.0495 -0.9703
vn 0.1679 0.0395 0.9850
vn 0.1679 0.0394 0.9850
vn 0.9410 -0.0575 0.3336
vn 0.9410 -0.0574 0.3336
vn -0.9022 0.0975 -0.4202
vn -0.8779 0.2295 -0.4202
vn -0.8140 0.0607 0.5777
vn -0.8141 0.0606 0.5776
vn -0.7776 0.1317 0.6148
vn -0.7776 0.1318 0.6148
vn -0.2848 -0.3063 -0.9083
vn -0.2847 -0.3063 -0.9083
vn -0.2847 -0.3063 -0.9084
vn 0.2522 0.8083 0.5321
vn 0.1591 0.8104 0.5639
vn 0.1561 0.7994 0.5802
vn 0.1358 0.8100 0.5705
vn 0.2361 0.8155 0.5284
vn 0.2363 0.8166 0.5267
vn 0.2362 0.8155 0.5284
vn 0.2363 0.8166 0.5266
vn 0.1871 -0.9228 -0.3369
vn 0.1872 -0.9228 -0.3368
vn 0.1871 -0.9228 -0.3368
vn -0.2229 -0.7617 -0.6084
vn -0.2230 -0.7617 -0.6084
vn -0.1542 -0.8329 -0.5315
vn -0.2030 -0.8318 -0.5166
vn -0.2030 -0.8318 -0.5167
vn -0.4032 -0.7731 -0.4897
vn -0.4032 -0.7731 -0.4896
vn 0.9519 -0.2357 -0.1958
vn -0.9860 0.1321 -0.1021
vn -0.9860 0.1321 -0.1020
vn 0.3558 0.8504 -0.3877
vn 0.3559 0.8504 -0.3876
vn 0.3559 0.8503 -0.3876
vn 0.3436 0.9375 0.0540
vn 0.3436 0.9376 0.0540
vn -0.2902 0.9535 0.0818
vn -0.3776 0.8681 -0.3222
vn 0.9805 -0.0888 -0.1754
vn -0.9456 0.2904 -0.1469
vn 0.0985 0.8790 -0.4665
vn 0.0985 0.8791 -0.4664
vn -0.1998 -0.9798 -0.0093
vn -0.1997 -0.9798 -0.0093
vn -0.3475 -0.9374 0.0234
vn -0.3475 -0.9374 0.0233
vn -0.3761 -0.9050 0.1986
vn -0.3761 -0.9050 0.1987
vn -0.2006 -0.9559 0.2145
vn -0.2005 -0.9559 0.2145
vn -0.1805 -0.9676 0.1765
vn -0.1767 -0.9816 0.0724
vn -0.1768 -0.9816 0.0724
vn -0.9280 0.3688 0.0529
vn -0.9529 0.1662 -0.2538
vn -0.0830 -0.9081 -0.4104
vn 0.0003 -0.0259 0.9997
vn 0.0004 -0.0258 0.9997
vn 0.0730 0.9315 0.3565
vn 0.0730 0.9315 0.3564
vn 0.0729 0.9315 0.3565
vn 0.0032 0.0602 -0.9982
vn 0.0033 0.0602 -0.9982
vn 0.0034 0.0603 -0.9982
vn 0.0033 0.0603 -0.9982
vn 0.0704 0.8565 -0.5112
vn 0.0705 0.8565 -0.5113
vn 0.0703 0.8566 -0.5112
vn 0.0704 0.8566 -0.5112
vn -0.0892 -0.8533 0.5137
vn -0.0892 -0.8533 0.5138
vn -0.0891 -0.8533 0.5138
vn -0.9920 -0.0320 -0.1224
vn -0.9650 0.1721 0.1977
vn -0.9152 0.3753 -0.1468
vn -0.9953 -0.0441 0.0867
vn 0.0788 -0.0856 -0.9932
vn 0.0787 -0.0856 -0.9932
vn 0.0788 -0.0857 -0.9932
vn 0.0861 0.2100 -0.9739
vn 0.0862 0.2101 -0.9739
vn -0.6934 -0.1102 -0.7121
vn -0.6934 -0.1101 -0.7121
vn -0.7053 0.2754 -0.6532
vn -0.9939 -0.1094 -0.0100
vn -0.9939 -0.1095 -0.0099
vn -0.9563 0.2854 0.0640
vn -0.9563 0.2853 0.0641
vn 0.8045 -0.0929 -0.5866
vn 0.8047 -0.0932 -0.5863
vn 0.8046 -0.0931 -0.5864
vn 0.8046 -0.0931 -0.5865
vn 0.8222 0.2680 -0.5022
vn 0.8221 0.2680 -0.5022
vn 0.9992 -0.0324 0.0227
vn 0.9992 -0.0325 0.0226
vn 0.9972 0.0650 0.0383
vn -0.9908 -0.1320 -0.0303
vn -0.9908 -0.1319 -0.0304
vn -0.9616 0.2733 0.0251
vn -0.9127 0.0955 0.3974
vn -0.9127 0.0956 0.3974
vn -0.8243 0.4191 0.3807
vn -0.8243 0.4192 0.3807
vn 0.0736 0.1184 0.9902
vn 0.0736 0.1183 0.9902
vn -0.0146 0.4581 0.8888
vn -0.0146 0.4580 0.8888
vn 0.8939 0.0187 0.4479
vn 0.8120 0.3704 0.4512
vn 0.8120 0.3703 0.4512
vn -0.1084 0.8535 0.5096
vn 0.4856 0.7812 0.3924
vn -0.5693 0.7536 0.3287
vn 0.0408 0.6005 0.7985
vn 0.0407 0.6007 0.7984
vn 0.0410 0.6004 0.7987
vn 0.0408 0.6006 0.7985
vn 0.8026 0.2434 0.5446
vn 0.8026 0.2434 0.5445
vn 0.9518 0.3050 -0.0313
vn 0.9520 0.3045 -0.0312
vn 0.9520 0.3044 -0.0311
vn 0.9521 0.3042 -0.0311
vn 0.0364 0.9400 -0.3393
vn -0.9963 -0.0614 0.0595
vn -0.9963 -0.0614 0.0594
vn -0.1077 -0.8742 0.4734
vn -0.1076 -0.8742 0.4735
vn -0.3506 0.9361 0.0271
vn -0.3507 0.9361 0.0271
vn -0.3506 0.9361 0.0272
vn 0.4738 -0.8641 0.1697
vn 0.4737 -0.8642 0.1697
vn -0.2052 0.9679 0.1452
vn 0.5126 -0.7644 -0.3911
vn 0.0698 0.3605 -0.9302
vn -0.0474 0.9759 0.2128
vn -0.2980 0.9331 0.2011
vn -0.4611 0.7950 0.3942
vn -0.4610 0.7950 0.3942
vn 0.3459 0.9041 0.2511
vn 0.3647 0.8235 0.4346
vn 0.3647 0.8234 0.4346
vn 0.3648 0.8234 0.4346
vn -0.0447 0.5024 0.8635
vn -0.0446 0.5024 0.8635
vn -0.2854 0.4188 0.8621
vn -0.2855 0.4187 0.8621
vn -0.0467 0.5505 0.8335
vn -0.0192 -0.0792 0.9967
vn -0.0191 -0.0792 0.9967
vn -0.0191 -0.0793 0.9967
vn 0.3114 0.2893 -0.9051
vn 0.3114 0.2894 -0.9051
vn 0.3115 0.2894 -0.9051
vn 0.2818 0.2402 -0.9289
vn 0.0999 0.4818 -0.8706
vn 0.0999 0.4817 -0.8706
vn 0.5046 -0.0211 -0.8631
vn 0.4448 0.0889 -0.8912
vn -0.0700 -0.4786 -0.8752
vn -0.0701 -0.4786 -0.8752
vn -0.0057 -0.4765 -0.8791
vn -0.0058 -0.4765 -0.8792
vn 0.5602 0.8283 0.0057
vn 0.5602 0.8284 0.0057
vn -0.0000 -1.0000 0.0001
vn -0.0467 -0.9933 0.1060
vn 0.0983 -0.9741 0.2038
vn 0.0982 -0.9741 0.2039
vn 0.0203 -0.9871 0.1590
vn 0.0203 -0.9871 0.1589
vn -0.9891 -0.1470 0.0003
vn -0.9673 0.2528 0.0214
vn 0.9961 0.0017 -0.0882
vn 0.9986 -0.0387 -0.0371
vn 0.9865 0.0002 -0.1636
vn 0.9868 -0.0057 -0.1617
vn 0.9864 0.0020 -0.1641
vn 0.9177 0.3906 -0.0723
vn -0.0188 -0.9962 -0.0847
vn -0.0186 -0.9962 -0.0847
vn -0.0187 -0.9962 -0.0847
vn -0.0000 -1.0000 -0.0000
vn 0.0684 -0.9966 -0.0451
vn 0.0360 -0.9921 -0.1198
vn -0.8283 0.4997 -0.2533
vn 0.1144 0.6765 -0.7275
vn 0.1145 0.6764 -0.7276
vn 0.1215 0.6677 -0.7345
vn -0.7336 0.1650 0.6593
vn 0.1614 -0.1367 0.9774
vn 0.8085 -0.1097 0.5781
vn 0.9411 0.0520 -0.3341
vn -0.7951 0.1533 -0.5867
vn -0.8306 0.0693 0.5526
vn -0.9504 -0.0737 -0.3022
vn -0.8683 0.0111 0.4960
vn 0.0167 0.0674 -0.9976
vn 0.7574 -0.2161 -0.6162
vn 0.7846 -0.2144 -0.5817
vn 0.8380 -0.2660 0.4765
vn 0.8366 -0.2682 0.4776
vn 0.8372 -0.2672 0.4771
vn 0.8365 -0.2684 0.4777
vn -0.2339 0.0133 -0.9722
vn 0.1244 0.1291 -0.9838
vn -0.8930 0.2681 -0.3614
vn -0.3961 0.2433 -0.8854
vn 0.4975 -0.2388 -0.8340
vn 0.5508 0.2742 -0.7883
vn 0.6726 -0.2320 -0.7027
vn 0.0874 0.0024 0.9962
vn 0.9943 0.0194 0.1046
vn -0.7160 0.3410 0.6091
vn -0.9875 0.1565 -0.0182
vn 0.2710 0.2238 0.9362
vn -0.8259 0.2315 0.5140
vn -0.8003 -0.4170 -0.4309
vn -0.9319 0.2907 0.2168
vn -0.8816 0.4582 0.1135
vn -0.8480 0.1625 0.5044
vn -0.5993 0.7234 0.3428
vn -0.1365 0.9526 0.2718
vn 0.9989 0.0095 0.0455
vn 0.1963 0.9479 0.2508
vn 0.5844 0.7996 -0.1384
vn -0.8187 0.4807 -0.3142
vn -0.8300 0.1465 0.5382
vn -0.0168 -0.1690 0.9855
vn 0.9448 -0.3002 0.1312
vn 0.9936 0.1117 -0.0157
vn 0.1219 0.6672 -0.7348
vn 0.8459 -0.2923 0.4460
vn 0.8577 -0.3217 -0.4010
vn 0.7701 -0.2623 -0.5815
vn -0.1589 0.1813 -0.9705
vn -0.8130 0.1357 -0.5663
vn -0.8648 0.1654 0.4742
vn -0.7832 0.0506 -0.6197
vn 0.8531 0.1672 -0.4942
vn 0.9480 0.1697 0.2693
vn 0.1119 -0.0670 0.9915
vn -0.7766 0.2688 0.5698
vn -0.1079 0.9363 0.3344
vn -0.7443 0.1047 0.6595
vn -0.9806 0.1915 -0.0414
vn -0.7625 0.5191 0.3862
vn -0.9991 -0.0290 0.0298
vn -0.9922 -0.1236 -0.0155
vn -0.8000 0.5897 0.1105
vn 0.3598 0.8784 0.3147
vn 0.1385 0.9272 0.3480
vn 0.9692 0.2404 -0.0539
vn 0.9869 -0.0073 -0.1612
vn 0.8257 0.2160 0.5212
vn 0.9961 -0.0821 -0.0327
vn 0.9773 0.2101 0.0265
vn 0.9779 0.1955 -0.0734
vn -0.3355 0.1084 -0.9358
vn -0.6866 0.2828 -0.6698
vn 0.3036 0.4385 -0.8459
vn -0.3220 0.1851 -0.9285
vt 0.043756 0.908308
vt 0.353125 0.875000
vt 0.082819 0.861433
vt 0.121881 0.908308
vt 0.130755 0.271348
vt 0.115130 0.333848
vt 0.035944 0.923933
vt 0.686043 0.588081
vt 0.840625 0.584375
vt 0.687781 0.586443
vt 0.680512 0.668865
vt 0.665221 0.659148
vt 0.665420 0.658823
vt 0.672120 0.580758
vt 0.670959 0.581764
vt 0.671487 0.582063
vt 0.666696 0.657544
vt 0.687500 0.570312
vt 0.667105 0.660503
vt 0.668334 0.659206
vt 0.675904 0.583519
vt 0.676036 0.667781
vt 0.676034 0.669233
vt 0.675380 0.666658
vt 0.676980 0.666856
vt 0.685875 0.586410
vt 0.677224 0.669040
vt 0.687425 0.586070
vt 0.685733 0.585525
vt 0.686796 0.587073
vt 0.686400 0.588001
vt 0.680006 0.668453
vt 0.672036 0.579783
vt 0.670035 0.659374
vt 0.684096 0.585459
vt 0.688722 0.586968
vt 0.687061 0.588587
vt 0.686522 0.589552
s 1
usemtl lpRobot
f 29/1/1 30/1/2 2/1/2
f 3/1/2 2/1/2 30/1/2
f 5/2/3 3/2/4 4/2/3
f 3/2/4 5/2/3 2/2/4
f 29/1/5 6/1/5 7/1/5
f 6/1/5 29/1/5 2/1/5
f 7/3/6 8/3/6 9/3/6
f 8/3/6 7/3/6 6/3/6
f 6/2/7 10/2/8 8/2/9
f 8/2/9 10/2/8 11/2/7
f 10/4/10 12/4/10 11/4/11
f 11/4/11 12/4/10 13/4/11
f 12/4/12 15/4/12 13/4/12
f 15/4/12 12/4/12 14/4/12
f 17/4/13 15/4/13 16/4/13
f 15/4/13 14/4/13 16/4/13
f 9/3/14 16/3/14 7/3/14
f 16/3/14 9/3/14 17/3/14
f 18/2/15 5/2/15 19/2/15
f 5/2/15 4/2/15 19/2/15
f 25/2/16 20/2/17 4/2/16
f 19/2/17 4/2/16 20/2/17
f 21/1/18 18/1/18 22/1/18
f 18/1/18 19/1/18 22/1/18
f 20/1/19 23/1/20 19/1/20
f 19/1/20 23/1/20 22/1/20
f 3/1/21 30/1/22 31/1/21
f 3/1/21 31/1/21 24/1/21
f 4/2/23 3/2/24 24/2/24
f 4/2/23 24/2/24 25/2/24
f 26/1/25 22/1/25 27/1/25
f 22/1/25 26/1/25 21/1/25
f 23/1/26 28/1/26 22/1/26
f 27/1/26 22/1/26 28/1/26
f 29/1/27 26/1/27 30/1/28
f 26/1/27 27/1/27 30/1/28
f 30/1/29 28/1/29 31/1/30
f 28/1/29 30/1/29 27/1/30
f 32/2/31 18/2/32 33/2/32
f 18/2/32 21/2/33 33/2/32
f 8/5/34 35/5/34 9/5/34
f 35/5/34 8/5/34 34/5/34
f 8/5/35 11/5/35 36/5/35
f 8/5/35 36/5/35 34/5/35
f 11/5/36 13/5/36 37/5/36
f 11/5/36 37/5/36 36/5/36
f 15/5/37 37/5/37 13/5/37
f 37/5/37 15/5/37 38/5/37
f 15/5/38 17/5/39 39/5/40
f 15/5/38 39/5/40 38/5/38
f 17/5/39 9/5/41 35/5/41
f 17/5/39 35/5/41 39/5/40
f 10/5/42 6/5/43 155/5/43
f 10/5/42 155/5/43 40/5/44
f 10/5/45 41/5/46 12/5/46
f 41/5/46 10/5/45 40/5/45
f 14/5/47 12/5/47 41/5/47
f 14/5/47 41/5/47 42/5/47
f 14/5/48 43/5/48 16/5/49
f 43/5/48 14/5/48 42/5/48
f 16/5/50 44/5/51 7/5/51
f 44/5/51 16/5/50 43/5/50
f 155/5/52 2/5/52 45/5/52
f 2/5/52 155/5/52 6/5/52
f 44/5/53 29/5/54 7/5/53
f 29/5/54 44/5/53 153/5/54
f 5/5/55 45/5/56 2/5/57
f 45/5/56 5/5/55 46/5/55
f 5/5/58 18/5/58 47/5/58
f 5/5/58 47/5/58 46/5/59
f 26/5/60 49/5/60 21/5/60
f 49/5/60 26/5/60 48/5/60
f 153/5/61 26/5/61 29/5/61
f 26/5/61 153/5/61 48/5/61
f 154/5/62 18/5/62 32/5/62
f 18/5/62 154/5/62 47/5/62
f 21/5/63 151/5/63 33/5/63
f 151/5/63 21/5/63 49/5/63
f 33/5/64 154/5/64 32/5/65
f 154/5/64 33/5/64 151/5/64
f 25/6/66 50/6/67 20/6/67
f 50/6/67 25/6/66 53/6/66
f 23/6/68 20/6/69 50/6/69
f 23/6/68 50/6/69 51/6/68
f 31/6/70 52/6/71 24/6/71
f 52/6/71 31/6/70 55/6/70
f 25/6/72 24/6/72 52/6/73
f 25/6/72 52/6/73 53/6/72
f 28/6/74 23/6/74 51/6/74
f 28/6/74 51/6/74 54/6/74
f 28/6/75 55/6/76 31/6/76
f 55/6/76 28/6/75 54/6/75
f 58/7/77 60/7/77 66/7/77
f 59/7/78 56/7/78 66/7/78
f 56/6/79 65/6/79 61/6/79
f 65/6/79 56/6/79 62/6/79
f 63/6/80 161/6/80 58/6/81
f 58/6/81 57/6/80 63/6/80
f 159/6/82 60/6/83 161/6/84
f 60/6/83 58/6/83 161/6/84
f 62/6/85 59/6/86 64/6/87
f 59/6/86 62/6/85 56/6/88
f 64/6/89 59/6/90 159/6/91
f 59/6/90 60/6/92 159/6/91
f 63/6/93 57/6/94 65/6/95
f 57/6/94 61/6/94 65/6/95
f 56/7/96 61/7/96 66/7/96
f 66/7/97 57/7/97 58/7/97
f 66/7/98 60/7/98 59/7/98
f 66/7/99 61/7/99 57/7/99
f 69/2/100 67/2/101 68/2/102
f 67/2/101 69/2/100 70/2/102
f 69/7/103 68/7/104 71/7/104
f 69/7/103 71/7/104 72/7/104
f 74/2/105 67/2/106 73/2/105
f 67/2/106 74/2/105 68/2/105
f 75/7/107 68/7/107 74/7/107
f 68/7/107 75/7/107 71/7/107
f 73/2/108 77/2/109 74/2/108
f 77/2/109 73/2/108 76/2/108
f 74/7/110 78/7/111 75/7/110
f 78/7/111 74/7/110 77/7/110
f 79/2/112 70/2/113 69/2/114
f 70/2/113 79/2/112 80/2/115
f 69/7/116 81/7/116 79/7/116
f 81/7/116 69/7/116 72/7/117
f 82/7/118 80/7/119 79/7/119
f 80/7/119 82/7/118 83/7/119
f 79/7/120 84/7/120 82/7/120
f 84/7/120 79/7/120 81/7/120
f 85/7/121 89/7/122 86/7/121
f 89/7/122 85/7/121 88/7/122
f 86/7/123 90/7/123 87/7/123
f 90/7/123 86/7/123 89/7/123
f 88/7/124 92/7/124 89/7/124
f 92/7/124 88/7/124 91/7/125
f 89/7/126 93/7/127 90/7/126
f 93/7/127 89/7/126 92/7/127
f 91/7/128 94/7/129 92/7/128
f 95/7/129 92/7/128 94/7/129
f 92/7/130 96/7/130 93/7/130
f 96/7/130 92/7/130 95/7/131
f 94/7/132 97/7/132 95/7/132
f 98/7/132 95/7/132 97/7/132
f 95/7/133 98/7/134 96/7/134
f 99/7/134 96/7/134 98/7/134
f 93/7/135 96/7/135 100/7/135
f 93/7/135 100/7/135 101/7/135
f 96/7/136 99/7/136 100/7/136
f 90/7/137 93/7/137 101/7/137
f 103/7/138 104/7/139 102/7/140
f 102/7/140 104/7/139 105/7/141
f 106/7/142 102/7/143 107/7/142
f 102/7/143 105/7/143 107/7/142
f 107/7/144 109/7/145 106/7/146
f 106/7/146 109/7/145 108/7/147
f 110/6/148 111/6/148 103/6/148
f 103/6/148 102/6/148 110/6/148
f 112/6/149 103/6/150 111/6/150
f 103/6/150 112/6/149 104/6/149
f 104/8/151 113/8/152 105/8/152
f 113/8/152 104/8/151 112/8/151
f 106/6/153 110/6/153 102/6/154
f 110/6/153 106/6/153 114/6/155
f 113/6/156 115/6/157 107/6/157
f 107/6/157 105/6/157 113/6/156
f 114/6/158 108/6/158 158/6/158
f 108/6/158 114/6/158 106/6/158
f 109/6/159 107/6/159 115/6/159
f 109/6/159 115/6/159 116/6/159
f 116/6/160 158/6/160 108/6/160
f 108/6/160 109/6/160 116/6/160
f 72/6/161 71/6/161 117/6/161
f 72/6/161 117/6/161 118/6/161
f 117/6/162 75/6/162 119/6/162
f 75/6/162 117/6/162 71/6/162
f 119/6/163 78/6/164 122/6/164
f 78/6/164 119/6/163 75/6/163
f 118/6/165 120/6/165 81/6/165
f 81/6/165 72/6/165 118/6/165
f 84/6/166 81/6/167 120/6/168
f 84/6/166 120/6/168 124/6/166
f 121/6/169 76/6/170 135/6/170
f 76/6/170 121/6/169 77/6/170
f 121/6/171 122/6/172 78/6/172
f 78/6/172 77/6/171 121/6/171
f 123/6/173 83/6/173 82/6/173
f 83/6/173 123/6/173 137/6/173
f 84/6/174 123/6/175 82/6/176
f 123/6/175 84/6/174 124/6/174
f 100/6/177 127/6/178 101/6/179
f 101/6/179 127/6/178 128/6/179
f 100/6/180 126/6/180 127/6/180
f 126/6/180 100/6/180 99/6/180
f 125/6/181 101/6/182 128/6/182
f 101/6/182 125/6/181 90/6/181
f 145/6/183 129/6/183 98/6/183
f 98/6/183 97/6/183 145/6/183
f 129/6/184 126/6/184 99/6/184
f 99/6/184 98/6/184 129/6/184
f 130/6/185 85/6/185 86/6/185
f 85/6/185 130/6/185 141/6/186
f 86/6/187 131/6/187 130/6/188
f 131/6/187 86/6/187 87/6/187
f 131/6/189 90/6/189 125/6/189
f 90/6/189 131/6/189 87/6/190
f 70/6/191 132/6/191 67/6/191
f 132/6/191 70/6/191 133/6/191
f 67/6/191 134/6/191 73/6/191
f 134/6/191 67/6/191 132/6/191
f 134/6/192 135/6/192 76/6/192
f 76/6/192 73/6/192 134/6/192
f 80/6/191 133/6/191 70/6/191
f 133/6/191 80/6/191 136/6/191
f 83/6/193 136/6/194 80/6/193
f 136/6/194 83/6/193 137/6/193
f 135/9/195 136/9/195 137/9/195
f 136/9/195 135/9/195 134/9/196
f 132/9/191 136/9/191 134/9/191
f 136/9/191 132/9/191 133/9/191
f 121/9/197 135/9/197 130/9/197
f 122/10/198 121/10/198 131/10/198
f 137/9/199 138/9/199 140/9/199
f 123/9/200 124/9/200 138/9/200
f 140/9/201 129/9/202 145/9/203
f 138/11/204 126/11/204 129/11/204
f 142/6/205 85/6/206 141/6/207
f 85/6/206 142/6/205 88/6/205
f 88/6/208 143/6/208 91/6/208
f 143/6/208 88/6/208 142/6/208
f 94/6/208 91/6/208 143/6/208
f 94/6/208 143/6/208 144/6/208
f 144/6/208 145/6/208 97/6/208
f 97/6/208 94/6/208 144/6/208
f 135/9/209 137/9/209 141/9/209
f 140/9/209 141/9/209 137/9/209
f 141/9/210 140/9/210 142/9/210
f 145/9/210 142/9/210 140/9/210
f 142/9/208 144/9/208 143/9/208
f 144/9/208 142/9/208 145/9/208
f 148/12/211 147/12/211 39/12/211
f 147/13/212 146/13/213 38/13/214
f 149/14/215 148/14/215 35/14/215
f 150/15/216 149/15/216 34/15/216
f 1/16/217 34/16/217 36/16/217
f 146/17/218 36/17/218 37/17/218
f 43/18/219 151/18/219 152/18/219
f 44/9/220 152/9/220 153/9/220
f 152/9/221 49/9/221 48/9/221
f 153/9/222 152/9/222 48/9/222
f 42/19/223 41/19/223 151/19/223
f 41/20/224 40/20/224 154/20/224
f 154/9/225 156/9/225 47/9/225
f 45/9/226 156/9/227 155/9/228
f 155/21/228 156/21/227 40/21/229
f 51/9/230 50/9/230 64/9/230
f 157/22/231 118/22/231 117/22/231
f 51/9/232 159/9/232 54/9/232
f 159/9/232 51/9/232 64/9/232
f 62/23/233 157/23/233 117/23/233
f 50/24/234 158/24/234 157/24/234
f 158/25/235 118/25/235 157/25/235
f 116/9/236 120/9/236 118/9/236
f 52/9/237 160/9/237 114/9/237
f 53/9/238 114/9/238 158/9/238
f 55/9/239 54/9/239 160/9/239
f 54/9/240 159/9/240 161/9/240
f 111/26/241 114/26/241 160/26/241
f 111/26/242 160/26/242 63/26/242
f 117/27/243 65/27/243 62/27/243
f 119/28/244 122/28/244 65/28/244
f 122/10/245 131/10/245 111/10/245
f 63/29/246 122/29/246 111/29/246
f 112/30/247 125/30/247 128/30/247
f 113/31/248 128/31/248 127/31/248
f 115/9/249 124/9/249 120/9/249
f 113/31/250 127/31/250 139/31/250
f 124/32/251 113/32/251 139/32/251
f 147/13/252 38/13/252 39/13/252
f 148/33/253 39/33/253 35/33/253
f 149/14/254 35/14/254 34/14/254
f 1/16/255 150/16/255 34/16/255
f 146/17/256 1/17/256 36/17/256
f 146/17/213 37/17/257 38/17/214
f 45/9/258 46/9/258 156/9/258
f 156/9/259 46/9/259 47/9/259
f 40/34/260 156/34/260 154/34/260
f 41/20/261 154/20/261 151/20/261
f 43/18/262 42/18/262 151/18/262
f 44/18/263 43/18/263 152/18/263
f 152/9/264 151/9/264 49/9/264
f 50/9/265 53/9/265 158/9/265
f 53/9/266 52/9/266 114/9/266
f 52/9/267 55/9/267 160/9/267
f 54/9/268 161/9/268 160/9/268
f 111/26/269 110/26/269 114/26/269
f 160/35/270 161/35/270 63/35/270
f 122/10/271 63/10/271 65/10/271
f 131/36/272 112/36/272 111/36/272
f 121/9/273 130/9/273 131/9/273
f 135/9/274 141/9/274 130/9/274
f 112/30/275 131/30/275 125/30/275
f 127/37/276 126/37/276 139/37/276
f 113/31/277 112/31/277 128/31/277
f 138/11/278 139/11/278 126/11/278
f 140/9/201 138/9/279 129/9/202
f 115/9/280 113/9/280 124/9/280
f 137/9/281 123/9/281 138/9/281
f 124/38/282 139/38/282 138/38/282
f 116/9/283 115/9/283 120/9/283
f 62/23/284 64/23/284 157/23/284
f 117/27/285 119/27/285 65/27/285
f 158/25/286 116/25/286 118/25/286
f 50/24/287 157/24/287 64/24/287
