# Blender 4.4.3
# www.blender.org
mtllib Desna_podlaktica.mtl
o Desna_podlaktica
v -0.408709 1.288310 0.021981
v -0.406496 1.287962 -0.022143
v -0.458382 1.285231 -0.024718
v -0.408709 1.288310 0.021981
v -0.406496 1.287962 -0.022143
v -0.394863 1.285353 0.016282
v -0.393222 1.285095 -0.016444
v -0.403237 1.254795 -0.037450
v -0.390141 1.256108 -0.031751
v -0.401130 1.224932 -0.019527
v -0.389443 1.227463 -0.011298
v -0.402336 1.224880 0.018656
v -0.388237 1.227514 0.016435
v -0.405478 1.255554 0.038711
v -0.391506 1.255392 0.034752
v -0.460852 1.285619 0.024529
v -0.458382 1.285231 -0.024718
v -0.454744 1.248213 -0.041803
v -0.456030 1.224687 -0.017164
v -0.456562 1.224607 0.015746
v -0.457246 1.249060 0.043201
v -0.562382 1.256976 0.016317
v -0.560839 1.256821 -0.016417
v -0.557774 1.236449 -0.027773
v -0.555590 1.218084 -0.014476
v -0.556425 1.218019 0.013849
v -0.559347 1.236856 0.028728
v -0.575533 1.255006 0.016317
v -0.573990 1.254852 -0.016417
v -0.570926 1.234480 -0.027773
v -0.568741 1.216115 -0.014476
v -0.569576 1.216050 0.013849
v -0.572498 1.234887 0.028728
v -0.575270 1.250183 0.012346
v -0.573838 1.250067 -0.012403
v -0.570994 1.234663 -0.020989
v -0.568966 1.220777 -0.010936
v -0.569741 1.220728 0.010481
v -0.572454 1.234971 0.021730
v -0.409533 1.252468 -0.029118
v -0.407824 1.232904 -0.015066
v -0.408936 1.232832 0.014095
v -0.410863 1.252896 0.029413
v -0.458714 1.247001 0.032842
v -0.553069 1.235769 0.021788
v -0.550971 1.223479 0.010425
v -0.550201 1.223548 -0.011209
v -0.552343 1.235552 -0.021727
v -0.456438 1.246522 -0.032080
v -0.641041 1.258071 0.021876
v -0.641390 1.259198 -0.031493
v -0.704054 1.262028 -0.030566
v -0.703705 1.260901 0.022802
v -0.641390 1.235373 -0.060189
v -0.689176 1.238203 -0.059263
v -0.626606 1.234849 0.052742
v -0.681339 1.239283 0.045542
v -0.606290 1.248807 0.021876
v -0.606639 1.249934 -0.031493
v -0.704054 1.248263 -0.030566
v -0.703705 1.247136 0.022802
v -0.641390 1.224659 -0.052988
v -0.689176 1.227489 -0.052062
v -0.623527 1.223001 0.052262
v -0.681339 1.227010 0.040638
v -0.602939 1.241242 0.021876
v -0.641563 1.207349 -0.033445
v -0.689000 1.210641 -0.032240
v -0.622738 1.200786 0.024498
v -0.689001 1.206810 0.016436
v -0.602521 1.215839 0.013214
v -0.645757 1.206719 0.057600
v -0.671119 1.212509 0.047043
v -0.675248 1.202241 0.033590
v -0.645926 1.194675 0.042981
v -0.684521 1.205465 0.054980
v -0.687140 1.195141 0.048159
v -0.671695 1.189293 0.064195
v -0.658202 1.205594 0.076825
v -0.690422 1.221126 0.057278
v -0.701440 1.193480 0.042203
v -0.664742 1.171383 0.061186
v -0.706875 1.193455 0.100579
v -0.730772 1.204975 0.086082
v -0.738944 1.184471 0.074901
v -0.711726 1.168082 0.088980
v -0.733927 1.185573 0.101514
v -0.744246 1.190548 0.095253
v -0.747775 1.181694 0.090425
v -0.736022 1.174617 0.096505
v -0.722733 1.245987 -0.029729
v -0.724440 1.244215 0.017677
v -0.720999 1.227534 -0.048823
v -0.725706 1.227108 0.033521
v -0.723399 1.215575 -0.031216
v -0.723400 1.212172 0.012022
v -0.729630 1.252317 -0.037804
v -0.731964 1.249894 0.027025
v -0.727259 1.227082 -0.063915
v -0.733696 1.226500 0.048692
v -0.730540 1.210727 -0.039837
v -0.730542 1.206073 0.019292
v -0.770820 1.248939 -0.037748
v -0.772592 1.246793 0.027078
v -0.765190 1.227519 -0.063926
v -0.771113 1.226659 0.048692
v -0.766178 1.213262 -0.039879
v -0.765362 1.209422 0.019236
v -0.793729 1.242530 -0.037775
v -0.793873 1.240572 0.027082
v -0.784802 1.222291 -0.063976
v -0.788369 1.221198 0.048740
v -0.782743 1.208267 -0.039860
v -0.780142 1.205071 0.019242
v -0.837506 1.211951 -0.030638
v -0.837703 1.208436 0.021879
v -0.817199 1.210052 -0.053488
v -0.820652 1.204257 0.037954
v -0.821279 1.194107 -0.035005
v -0.819525 1.190917 0.012750
v -0.393985 1.278287 0.012663
v -0.392741 1.278091 -0.012142
v -0.390406 1.256119 -0.023745
v -0.389877 1.234406 -0.008242
v -0.388963 1.234445 0.012780
v -0.391440 1.255577 0.026663
v -0.577622 1.220728 0.010481
v -0.603289 1.242369 -0.031493
v -0.602520 1.220391 -0.027532
v -0.670475 1.201683 0.068304
vn -0.0520 0.9986 -0.0105
vn 0.2100 0.9777 0.0028
vn 0.3347 0.4877 0.8063
vn 0.3346 0.4877 0.8063
vn 0.3781 0.4398 -0.8146
vn 0.3780 0.4398 -0.8146
vn 0.4878 -0.4623 -0.7405
vn 0.4879 -0.4623 -0.7405
vn 0.1964 -0.9805 -0.0000
vn 0.2273 -0.5163 0.8257
vn 0.2269 -0.5162 0.8259
vn 0.2272 -0.5163 0.8258
vn -0.0521 0.9986 -0.0105
vn 0.0199 0.4563 0.8896
vn 0.0229 0.4208 -0.9069
vn 0.1226 -0.5582 -0.8206
vn 0.1679 -0.9858 0.0040
vn 0.1699 -0.9855 0.0007
vn 0.1682 -0.9858 0.0035
vn 0.1301 -0.5937 0.7941
vn -0.2693 0.9629 -0.0196
vn -0.2693 0.9628 -0.0195
vn -0.2693 0.9629 -0.0195
vn -0.1883 0.4552 0.8703
vn -0.1883 0.4552 0.8702
vn -0.1788 0.4201 -0.8897
vn -0.1788 0.4200 -0.8897
vn -0.0245 -0.5642 -0.8253
vn 0.0120 -0.9999 -0.0026
vn 0.0120 -0.9999 -0.0023
vn 0.0119 -0.9999 -0.0028
vn -0.0374 -0.6087 0.7926
vn -0.1481 0.9889 -0.0116
vn -0.0771 0.5150 0.8537
vn -0.0715 0.4774 -0.8758
vn 0.0865 -0.5775 -0.8118
vn 0.1481 -0.9890 0.0021
vn 0.0911 -0.6085 0.7883
vn -0.9977 -0.0432 -0.0514
vn -0.9977 -0.0433 -0.0514
vn -0.9892 -0.1428 0.0340
vn -0.9892 -0.1428 0.0341
vn -0.9895 -0.1355 -0.0501
vn -0.9934 -0.1121 0.0244
vn -0.9986 -0.0412 -0.0324
vn -0.9903 -0.1304 -0.0484
vn -0.9903 -0.1305 -0.0484
vn -0.7238 -0.4133 -0.5526
vn -0.7237 -0.4133 -0.5526
vn -0.7673 -0.6407 -0.0276
vn -0.7594 -0.4215 0.4957
vn 0.1358 -0.9731 0.1862
vn 0.1358 -0.9731 0.1861
vn 0.0900 -0.9752 0.2024
vn 0.6859 -0.4012 0.6071
vn 0.7097 -0.7042 0.0209
vn 0.7098 -0.7041 0.0209
vn 0.6901 -0.3831 -0.6139
vn 0.6901 -0.3831 -0.6140
vn 0.0896 -0.9792 -0.1820
vn 0.1362 -0.9781 -0.1574
vn 0.0454 0.9988 0.0208
vn 0.0290 0.7728 -0.6340
vn 0.0290 0.7727 -0.6341
vn 0.0138 0.7716 0.6360
vn 0.0137 0.7716 0.6360
vn 0.2575 0.9661 0.0187
vn 0.2202 0.8262 0.5186
vn 0.2009 0.7537 -0.6258
vn -1.0000 -0.0000 0.0065
vn -0.8980 -0.1242 -0.4221
vn -0.8980 -0.1241 -0.4221
vn -0.0491 -0.5572 -0.8289
vn -0.7287 -0.1267 0.6730
vn -0.7287 -0.1268 0.6730
vn -0.7287 -0.1268 0.6729
vn -0.1775 -0.2359 0.9554
vn -0.1775 -0.2360 0.9554
vn 0.9144 0.4049 0.0026
vn 0.7480 0.2323 0.6217
vn 0.7480 0.2324 0.6217
vn 0.6127 -0.1899 -0.7672
vn 0.6127 -0.1900 -0.7672
vn -0.2662 0.9637 0.0221
vn -0.0631 -0.7538 -0.6541
vn -0.0638 -0.7561 -0.6514
vn -0.0632 -0.7545 -0.6532
vn -0.0716 -0.9943 -0.0789
vn -0.0797 -0.9930 -0.0866
vn -0.0714 -0.9943 -0.0787
vn 0.3293 -0.9384 -0.1048
vn 0.0662 -0.9916 -0.1108
vn 0.5329 -0.1320 -0.8358
vn 0.7939 -0.3566 0.4925
vn 0.7939 -0.3565 0.4925
vn -0.1889 0.4134 0.8907
vn -0.1888 0.4135 0.8907
vn -0.7828 -0.3407 0.5207
vn -0.7828 -0.3407 0.5208
vn -0.7827 -0.3407 0.5209
vn -0.0792 -0.9489 -0.3054
vn -0.0792 -0.9490 -0.3053
vn -0.0792 -0.9489 -0.3053
vn 0.5812 -0.6288 0.5165
vn 0.5810 -0.6288 0.5168
vn -0.1920 0.8722 0.4499
vn -0.6890 0.6105 -0.3907
vn -0.6890 0.6104 -0.3907
vn -0.0586 -0.9218 -0.3832
vn -0.0585 -0.9218 -0.3832
vn 0.4307 -0.3220 0.8431
vn 0.6234 0.2130 -0.7523
vn 0.6234 0.2129 -0.7524
vn 0.3953 0.3482 -0.8500
vn 0.3952 0.3483 -0.8500
vn 0.6013 0.1350 -0.7876
vn 0.6012 0.1350 -0.7876
vn 0.6013 0.1350 -0.7875
vn 0.4496 0.2840 -0.8469
vn 0.0636 0.8298 0.5544
vn -0.6195 0.5515 -0.5586
vn -0.2395 -0.8302 -0.5034
vn 0.4801 -0.4390 0.7595
vn -0.1574 0.6303 0.7602
vn -0.7851 0.5070 -0.3559
vn -0.3431 -0.8713 -0.3510
vn 0.1575 -0.4353 0.8864
vn -0.5678 -0.2311 0.7900
vn -0.1335 0.9907 0.0267
vn -0.1176 0.7087 -0.6956
vn -0.2661 0.6655 0.6973
vn -0.0668 -0.7605 -0.6458
vn -0.1438 -0.9866 -0.0777
vn -0.1070 -0.7464 0.6568
vn 0.6417 0.7652 0.0517
vn 0.8228 0.4442 -0.3546
vn 0.8228 0.4442 -0.3545
vn 0.8219 0.3532 0.4470
vn 0.8219 0.3531 0.4470
vn 0.7544 -0.5862 -0.2953
vn 0.6108 -0.7894 -0.0621
vn 0.6108 -0.7893 -0.0621
vn 0.7957 -0.4541 0.4008
vn -0.0789 0.9964 0.0326
vn -0.0281 0.7438 -0.6679
vn -0.0280 0.7437 -0.6679
vn -0.0261 0.7049 0.7088
vn -0.0336 -0.8419 -0.5385
vn -0.0829 -0.9940 -0.0708
vn -0.0414 -0.8444 0.5341
vn -0.0413 -0.8445 0.5340
vn -0.2748 0.9612 0.0264
vn -0.2747 0.9612 0.0264
vn -0.2010 0.7387 -0.6434
vn -0.2011 0.7387 -0.6434
vn -0.2126 0.7043 0.6773
vn 0.2365 -0.8356 -0.4959
vn 0.2851 -0.9563 -0.0652
vn 0.2850 -0.9563 -0.0652
vn 0.2507 -0.8158 0.5212
vn 0.2508 -0.8158 0.5211
vn -0.5812 0.8129 0.0363
vn -0.5812 0.8130 0.0362
vn -0.4960 0.6415 -0.5851
vn -0.4960 0.6415 -0.5852
vn -0.5023 0.5661 0.6536
vn 0.1797 -0.8086 -0.5603
vn 0.3420 -0.9371 -0.0699
vn 0.3420 -0.9371 -0.0700
vn 0.2440 -0.8357 0.4919
vn -0.5386 -0.7544 0.3752
vn -0.6761 -0.4775 -0.5611
vn -0.7229 -0.6900 -0.0349
vn 0.9939 0.0984 0.0491
vn 0.9930 0.1179 0.0107
vn 0.9935 0.1137 0.0106
vn 0.9935 0.1138 0.0106
vn 0.9955 0.0885 0.0328
vn 0.9983 0.0479 0.0330
vn 0.9983 0.0479 0.0329
vn 0.9957 0.0813 -0.0435
vn 0.9939 0.1096 0.0105
vn 0.1144 0.5368 0.8359
vn 0.1587 -0.6468 0.7460
vn 0.2701 -0.1616 -0.9492
vn 0.3879 -0.5027 -0.7725
vn -0.3145 0.9490 -0.0227
vn -0.0619 -0.3230 0.9444
vn 0.1478 -0.9890 0.0031
vn 0.3735 0.5033 -0.7792
vn -0.1285 0.5740 0.8087
vn -0.1970 -0.8149 0.5451
vn -0.0722 0.6918 -0.7185
vn -0.1333 -0.8113 -0.5692
vn -0.0710 -0.9944 -0.0783
vn 0.4835 -0.8383 -0.2520
vn 0.3310 -0.7078 -0.6240
vn 0.5632 -0.6409 0.5215
vn 0.0148 0.8912 0.4533
vn -0.0051 -0.6793 0.7338
vn 0.1702 -0.9854 0.0004
vn 0.0121 -0.9999 -0.0022
vn 0.1325 -0.5706 -0.8105
vn -0.0393 -0.6625 -0.7481
vt 0.082819 0.861433
vt 0.353125 0.875000
vt 0.632266 0.650499
vt 0.840625 0.584375
vt 0.631415 0.652272
vt 0.201067 0.310410
vt 0.655453 0.546532
vt 0.629189 0.658073
vt 0.629030 0.657969
vt 0.657337 0.546795
vt 0.656583 0.546264
vt 0.657747 0.544153
vt 0.658021 0.544839
vt 0.627758 0.660545
vt 0.657650 0.545856
vt 0.657551 0.542915
vt 0.625772 0.660886
vt 0.658622 0.544343
vt 0.655015 0.547778
vt 0.655449 0.548195
vt 0.629245 0.656544
vt 0.628296 0.657512
vt 0.655484 0.546570
vt 0.655430 0.548221
vt 0.628249 0.657498
vt 0.658744 0.542600
vt 0.658841 0.545345
vt 0.658382 0.545107
vt 0.632184 0.652753
s 1
usemtl lpRobot
f 3/1/1 1/1/1 2/1/1
f 6/1/2 7/1/2 5/1/2
f 5/1/2 4/1/2 6/1/2
f 4/1/3 14/1/4 6/1/4
f 6/1/4 14/1/4 15/1/4
f 7/1/5 8/1/5 5/1/5
f 8/1/5 7/1/5 9/1/6
f 9/2/7 11/2/7 8/2/7
f 8/2/7 11/2/7 10/2/8
f 12/2/9 11/2/9 13/2/9
f 11/2/9 12/2/9 10/2/9
f 14/2/10 12/2/11 15/2/12
f 12/2/11 13/2/10 15/2/12
f 4/1/13 17/1/13 16/1/13
f 4/1/14 21/1/14 14/1/14
f 21/1/14 4/1/14 16/1/14
f 17/1/15 5/1/15 18/1/15
f 5/1/15 8/1/15 18/1/15
f 40/3/16 19/3/16 49/3/16
f 41/4/17 42/4/18 19/4/19
f 42/4/20 44/4/20 20/4/20
f 23/1/21 16/1/22 17/1/23
f 16/1/22 23/1/21 22/1/22
f 22/1/24 21/1/25 16/1/25
f 21/1/25 22/1/24 27/1/25
f 18/1/26 23/1/27 17/1/27
f 23/1/27 18/1/26 24/1/26
f 49/5/28 19/5/28 48/5/28
f 19/4/29 46/4/30 47/4/31
f 20/4/32 44/4/32 46/4/32
f 29/1/33 22/1/33 23/1/33
f 22/1/33 29/1/33 28/1/33
f 33/1/34 22/1/34 28/1/34
f 22/1/34 33/1/34 27/1/34
f 30/1/35 29/1/35 23/1/35
f 23/1/35 24/1/35 30/1/35
f 30/2/36 25/2/36 31/2/36
f 25/2/36 30/2/36 24/2/36
f 26/2/37 31/2/37 25/2/37
f 31/2/37 26/2/37 32/2/37
f 32/2/38 27/2/38 33/2/38
f 27/2/38 32/2/38 26/2/38
f 29/6/39 34/6/39 28/6/40
f 34/6/39 29/6/39 35/6/40
f 28/6/41 39/6/41 33/6/41
f 39/6/41 28/6/41 34/6/42
f 29/6/43 30/6/43 36/6/43
f 29/6/43 36/6/43 35/6/43
f 31/6/44 36/6/44 30/6/44
f 36/6/44 31/6/44 37/6/44
f 32/6/45 37/6/45 31/6/45
f 37/6/45 32/6/45 38/6/45
f 32/6/46 33/6/47 39/6/47
f 32/6/46 39/6/47 38/6/46
f 10/6/48 40/6/49 8/6/49
f 40/6/49 10/6/48 41/6/48
f 10/6/50 12/6/50 42/6/50
f 10/6/50 42/6/50 41/6/50
f 12/6/51 14/6/51 43/6/51
f 12/6/51 43/6/51 42/6/51
f 21/6/52 43/6/52 14/6/53
f 43/6/52 21/6/52 44/6/52
f 45/6/54 21/6/54 27/6/54
f 21/6/54 45/6/54 44/6/54
f 26/6/55 45/6/55 27/6/55
f 45/6/55 26/6/55 46/6/55
f 25/6/56 46/6/57 26/6/56
f 46/6/57 25/6/56 47/6/56
f 25/6/58 24/6/59 48/6/59
f 25/6/58 48/6/59 47/6/58
f 48/6/60 18/6/60 49/6/60
f 18/6/60 48/6/60 24/6/60
f 40/6/61 49/6/61 18/6/61
f 18/6/61 8/6/61 40/6/61
f 52/1/62 50/1/62 51/1/62
f 50/1/62 52/1/62 53/1/62
f 55/1/63 51/1/64 54/1/64
f 51/1/64 55/1/63 52/1/63
f 53/1/65 57/1/66 50/1/65
f 50/1/65 57/1/66 56/1/65
f 59/1/67 50/1/67 58/1/67
f 50/1/67 59/1/67 51/1/67
f 50/1/68 56/1/68 58/1/68
f 51/1/69 59/1/69 54/1/69
f 53/6/70 52/6/70 60/6/70
f 53/6/70 60/6/70 61/6/70
f 60/6/71 55/6/71 63/6/71
f 55/6/71 60/6/71 52/6/72
f 54/6/73 63/6/73 55/6/73
f 63/6/73 54/6/73 62/6/73
f 61/6/74 65/6/75 57/6/76
f 57/6/76 53/6/74 61/6/74
f 56/6/77 57/6/78 65/6/78
f 56/6/77 65/6/78 64/6/77
f 58/6/79 128/6/79 59/6/79
f 128/6/79 58/6/79 66/6/79
f 56/6/80 66/6/81 58/6/81
f 66/6/81 56/6/80 64/6/80
f 128/6/82 62/6/83 54/6/83
f 54/6/83 59/6/82 128/6/82
f 128/7/84 66/7/84 35/7/84
f 67/4/85 68/4/86 63/4/87
f 67/4/85 63/4/87 62/4/85
f 67/4/88 69/4/89 70/4/90
f 67/4/91 129/4/91 71/4/91
f 71/8/92 129/8/92 37/8/92
f 129/9/93 62/9/93 128/9/93
f 64/10/94 71/10/94 66/10/95
f 71/10/94 64/10/94 69/10/94
f 65/11/96 72/11/97 64/11/97
f 72/11/97 65/11/96 73/11/96
f 65/12/98 70/12/99 74/12/100
f 65/12/98 74/12/100 73/12/99
f 69/4/101 74/4/102 70/4/103
f 74/4/102 69/4/101 75/4/101
f 64/10/104 75/10/105 69/10/105
f 75/10/105 64/10/104 72/10/105
f 73/13/106 76/13/106 130/13/106
f 73/14/107 77/14/107 76/14/108
f 77/14/107 73/14/107 74/14/107
f 74/4/109 75/4/109 78/4/109
f 74/4/109 78/4/109 77/4/110
f 72/15/111 130/15/111 78/15/111
f 80/6/112 79/6/113 130/6/113
f 80/6/112 130/6/113 76/6/112
f 76/6/114 77/6/115 81/6/115
f 76/6/114 81/6/115 80/6/114
f 82/6/116 77/6/117 78/6/118
f 82/6/116 81/6/116 77/6/117
f 79/6/119 82/6/119 78/6/119
f 79/6/119 78/6/119 130/6/119
f 83/1/120 80/1/120 84/1/120
f 80/1/120 83/1/120 79/1/120
f 85/1/121 84/1/121 80/1/121
f 80/1/121 81/1/121 85/1/121
f 82/1/122 86/1/122 81/1/122
f 85/1/122 81/1/122 86/1/122
f 83/1/123 82/1/123 79/1/123
f 82/1/123 83/1/123 86/1/123
f 87/1/124 84/1/124 88/1/124
f 84/1/124 87/1/124 83/1/124
f 85/1/125 88/1/125 84/1/125
f 88/1/125 85/1/125 89/1/125
f 89/1/126 85/1/126 90/1/126
f 85/1/126 86/1/126 90/1/126
f 87/1/127 86/1/127 83/1/127
f 86/1/127 87/1/127 90/1/127
f 87/1/128 89/1/128 90/1/128
f 89/1/128 87/1/128 88/1/128
f 60/16/129 92/16/129 61/16/129
f 92/16/129 60/16/129 91/16/129
f 60/17/130 93/17/130 91/17/130
f 61/16/131 92/16/131 94/16/131
f 63/4/87 68/4/86 93/4/132
f 96/4/133 68/4/133 70/4/133
f 68/4/133 96/4/133 95/4/133
f 70/18/134 65/18/134 94/18/134
f 97/6/135 92/6/135 91/6/135
f 97/6/135 98/6/135 92/6/135
f 93/6/136 97/6/136 91/6/136
f 97/6/136 93/6/136 99/6/137
f 94/6/138 92/6/139 98/6/139
f 94/6/138 98/6/139 100/6/138
f 101/6/140 93/6/140 95/6/140
f 101/6/140 99/6/140 93/6/140
f 102/6/141 95/6/142 96/6/141
f 102/6/141 101/6/142 95/6/142
f 102/6/143 94/6/143 100/6/143
f 94/6/143 102/6/143 96/6/143
f 103/1/144 98/1/144 97/1/144
f 98/1/144 103/1/144 104/1/144
f 105/1/145 97/1/146 99/1/146
f 97/1/146 105/1/145 103/1/146
f 104/1/147 100/1/147 98/1/147
f 100/1/147 104/1/147 106/1/147
f 101/2/148 105/2/148 99/2/148
f 105/2/148 101/2/148 107/2/148
f 108/2/149 101/2/149 102/2/149
f 101/2/149 108/2/149 107/2/149
f 100/2/150 108/2/151 102/2/150
f 108/2/151 100/2/150 106/2/150
f 109/1/152 104/1/153 103/1/153
f 104/1/153 109/1/152 110/1/153
f 111/1/154 103/1/155 105/1/154
f 103/1/155 111/1/154 109/1/154
f 104/1/156 112/1/156 106/1/156
f 112/1/156 104/1/156 110/1/156
f 113/2/157 105/2/157 107/2/157
f 105/2/157 113/2/157 111/2/157
f 114/2/158 107/2/158 108/2/159
f 107/2/158 114/2/158 113/2/158
f 114/2/160 106/2/160 112/2/160
f 106/2/160 114/2/160 108/2/161
f 115/1/162 110/1/163 109/1/163
f 110/1/163 115/1/162 116/1/163
f 117/1/164 109/1/164 111/1/165
f 109/1/164 117/1/164 115/1/164
f 110/1/166 118/1/166 112/1/166
f 118/1/166 110/1/166 116/1/166
f 113/2/167 117/2/167 111/2/167
f 117/2/167 113/2/167 119/2/167
f 120/2/168 113/2/169 114/2/168
f 113/2/169 120/2/168 119/2/169
f 114/2/170 118/2/170 120/2/170
f 118/2/170 114/2/170 112/2/170
f 120/6/171 118/6/171 116/6/171
f 115/6/172 117/6/172 119/6/172
f 115/6/173 120/6/173 116/6/173
f 120/6/173 115/6/173 119/6/173
f 6/6/174 122/6/174 7/6/174
f 122/6/174 6/6/174 121/6/174
f 6/6/175 15/6/176 126/6/177
f 6/6/175 126/6/177 121/6/175
f 9/6/178 7/6/178 122/6/178
f 9/6/178 122/6/178 123/6/178
f 11/6/179 9/6/180 123/6/180
f 11/6/179 123/6/180 124/6/179
f 11/6/181 125/6/181 13/6/181
f 125/6/181 11/6/181 124/6/181
f 13/6/182 126/6/177 15/6/176
f 126/6/177 13/6/182 125/6/182
f 39/19/183 34/19/183 66/19/183
f 38/20/184 39/20/184 127/20/184
f 39/20/184 71/20/184 127/20/184
f 36/21/185 129/21/185 128/21/185
f 36/21/186 37/21/186 129/21/186
f 66/22/187 34/22/187 35/22/187
f 66/23/188 71/23/188 39/23/188
f 37/24/189 38/24/189 71/24/189
f 128/25/190 35/25/190 36/25/190
f 94/26/191 65/26/191 61/26/191
f 94/26/192 96/26/192 70/26/192
f 60/17/193 63/17/193 93/17/193
f 68/4/194 95/4/194 93/4/194
f 70/4/90 68/4/195 67/4/88
f 71/4/196 69/4/196 67/4/196
f 129/4/197 67/4/197 62/4/197
f 78/27/198 75/27/198 72/27/198
f 130/28/199 72/28/199 73/28/199
f 42/4/20 43/4/20 44/4/20
f 44/4/200 45/4/200 46/4/200
f 42/4/18 20/4/201 19/4/19
f 19/4/29 20/4/202 46/4/30
f 40/3/203 41/3/203 19/3/203
f 19/29/204 47/29/204 48/29/204
