# Blender 4.4.3
# www.blender.org
mtllib Desni_kuk.mtl
o Desni_kuk
v -0.073355 0.928161 0.044408
v -0.060713 0.988874 0.006360
v -0.067761 0.973421 0.052624
v -0.070233 0.986977 0.000662
v -0.029195 0.964138 0.077606
v -0.032028 0.957446 0.083143
v -0.013232 0.843282 0.077367
v -0.078182 0.939983 0.053584
v -0.017675 0.882819 0.091825
v -0.026064 0.890001 0.080680
v -0.010778 0.808336 0.038682
v -0.017326 0.812842 0.035426
v -0.010314 0.813824 -0.019712
v -0.028132 0.867345 -0.047144
v -0.034297 0.866456 -0.036626
v -0.079491 0.943482 -0.010184
v -0.029952 0.984974 -0.014197
v -0.027154 0.973402 -0.035418
v -0.046366 0.908382 -0.047144
v -0.074529 0.935479 -0.003513
v -0.050954 0.902497 -0.033503
v -0.057552 0.976498 0.049205
v -0.050224 0.911388 0.066552
v -0.051169 0.925594 0.075518
v -0.021213 0.860036 0.073018
v -0.022965 0.819721 -0.017269
v 0.000000 0.950110 0.091801
v 0.000000 0.868240 -0.047410
v 0.013232 0.843282 0.077367
v 0.000000 0.892203 0.098976
v 0.017675 0.882819 0.091825
v 0.010778 0.808336 0.038682
v 0.010314 0.813824 -0.019712
v 0.000000 0.983073 -0.021562
v 0.000000 0.974558 -0.040577
v 0.000000 0.906722 -0.047451
v 0.000000 0.958383 0.080676
vn -0.9687 0.2392 0.0669
vn -0.5497 0.3061 -0.7772
vn -0.5497 0.3059 -0.7773
vn -0.2645 0.9261 0.2690
vn -0.2646 0.9261 0.2690
vn -0.1111 0.8996 -0.4223
vn -0.1111 0.8996 -0.4224
vn -0.1891 0.7887 0.5850
vn -0.8380 -0.2640 0.4775
vn -0.7267 -0.4939 0.4775
vn -0.7267 -0.4940 0.4775
vn -0.7267 -0.4940 0.4774
vn -0.5780 0.1804 0.7959
vn -0.5780 0.1805 0.7959
vn -0.5780 0.1805 0.7958
vn -0.5139 -0.0767 0.8544
vn -0.5138 -0.0766 0.8545
vn -0.8200 -0.4221 0.3864
vn -0.8200 -0.4222 0.3865
vn -0.4726 -0.8780 -0.0757
vn -0.5812 -0.4768 -0.6595
vn -0.0870 0.8889 -0.4498
vn -0.0871 0.8889 -0.4498
vn -0.0723 0.1485 -0.9863
vn -0.0723 0.1486 -0.9863
vn -0.8976 -0.4403 -0.0227
vn -0.8153 -0.3504 -0.4611
vn -0.8153 -0.3504 -0.4610
vn -0.8552 -0.4352 -0.2817
vn -0.8552 -0.4351 -0.2818
vn -0.8552 -0.4351 -0.2817
vn -0.6787 -0.3351 0.6535
vn 0.0300 0.7411 0.6707
vn -0.3051 0.0805 0.9489
vn -0.0000 -0.9956 -0.0936
vn -0.0078 -0.0022 -1.0000
vn -0.0080 -0.0021 -1.0000
vn -0.0077 -0.0023 -1.0000
vn -0.0000 -0.3434 0.9392
vn -0.0000 -0.7420 0.6703
vn -0.0000 -0.6061 0.7954
vn 0.0048 -0.4543 -0.8908
vn 0.0080 -0.4509 -0.8925
vn -0.0033 -0.4542 -0.8909
vn 0.0060 -0.4545 -0.8907
vt 0.106256 0.861433
vt 0.082819 0.861433
vt 0.201067 0.310410
vt 0.353125 0.875000
s 1
usemtl lpRobot
f 16/1/1 3/1/1 4/1/1
f 3/1/1 16/1/1 8/1/1
f 18/2/2 19/2/3 16/2/2
f 18/2/2 16/2/2 4/2/3
f 3/3/4 2/3/5 4/3/5
f 2/3/5 3/3/4 22/3/4
f 4/3/6 17/3/7 18/3/7
f 17/3/7 4/3/6 2/3/6
f 6/3/8 22/3/8 3/3/8
f 22/3/8 6/3/8 5/3/8
f 7/3/9 9/3/9 25/3/9
f 25/3/9 9/3/9 10/3/9
f 24/3/10 1/3/11 23/3/10
f 1/3/11 24/3/10 8/3/12
f 24/2/13 6/2/14 8/2/15
f 6/2/14 3/2/15 8/2/15
f 6/2/16 10/2/16 9/2/16
f 10/2/16 6/2/16 24/2/17
f 25/3/18 12/3/19 7/3/18
f 11/3/19 7/3/18 12/3/19
f 12/3/20 13/3/20 11/3/20
f 13/3/20 12/3/20 26/3/20
f 14/3/21 26/3/21 15/3/21
f 26/3/21 14/3/21 13/3/21
f 18/3/22 34/3/22 35/3/23
f 34/3/22 18/3/22 17/3/22
f 35/2/24 36/2/24 18/2/24
f 18/2/24 36/2/24 19/2/25
f 8/3/26 16/3/26 20/3/26
f 8/3/26 20/3/26 1/3/26
f 21/3/27 14/3/27 15/3/27
f 14/3/27 21/3/27 19/3/28
f 16/3/29 21/3/30 20/3/31
f 21/3/30 16/3/29 19/3/30
f 23/3/32 25/3/32 10/3/32
f 23/3/32 10/3/32 24/3/32
f 5/3/33 27/3/33 37/3/33
f 27/3/33 5/3/33 6/3/33
f 6/2/34 30/2/34 27/2/34
f 30/2/34 6/2/34 9/2/34
f 11/4/35 13/4/35 32/4/35
f 32/4/35 13/4/35 33/4/35
f 36/4/36 14/4/37 19/4/38
f 14/4/37 36/4/36 28/4/38
f 9/4/39 29/4/39 31/4/39
f 29/4/39 9/4/39 7/4/39
f 29/4/40 7/4/40 11/4/40
f 29/4/40 11/4/40 32/4/40
f 31/4/41 30/4/41 9/4/41
f 13/4/42 28/4/43 33/4/44
f 13/4/42 14/4/45 28/4/43
