# Blender 4.4.3
# www.blender.org
mtllib Lijeva_podkoljenica.mtl
o Lijeva_podkoljenica
v 0.097088 0.468181 0.017833
v 0.097978 0.453592 -0.009149
v 0.099456 0.463352 -0.033326
v 0.145819 0.260801 0.018528
v 0.179259 0.265447 0.016208
v 0.184528 0.208752 0.011534
v 0.156275 0.197326 0.006842
v 0.141345 0.186874 -0.036097
v 0.129317 0.232438 -0.032090
v 0.125370 0.344503 0.022089
v 0.169778 0.357399 0.023543
v 0.117226 0.381739 0.022089
v 0.161634 0.394635 0.023543
v 0.080378 0.371144 -0.035265
v 0.081042 0.406572 -0.023805
v 0.104438 0.419116 -0.089326
v 0.099020 0.442759 -0.068821
v 0.158167 0.429205 -0.089545
v 0.152919 0.452111 -0.069271
v 0.195577 0.401357 -0.030103
v 0.184361 0.430025 -0.021138
v 0.162789 0.193629 -0.073175
v 0.150539 0.241921 -0.073526
v 0.143136 0.163036 -0.036119
v 0.165211 0.168327 -0.073175
v 0.194768 0.205706 -0.064062
v 0.191051 0.247291 -0.064412
v 0.202797 0.181023 -0.064062
v 0.187014 0.187889 0.012459
v 0.157736 0.176100 0.008276
v 0.212826 0.213090 -0.025592
v 0.208877 0.239263 -0.025983
v 0.217288 0.189615 -0.025804
v 0.161278 0.316786 -0.095406
v 0.151300 0.315223 -0.099780
v 0.120877 0.390266 0.010865
v 0.154808 0.400120 0.011976
v 0.093229 0.409241 -0.024201
v 0.106966 0.436891 -0.058598
v 0.148149 0.444036 -0.058942
v 0.172174 0.427161 -0.022164
v 0.126634 0.345136 0.010280
v 0.092496 0.371830 -0.034504
v 0.111427 0.408474 -0.070621
v 0.153704 0.416412 -0.070794
v 0.183139 0.399864 -0.032497
v 0.166308 0.359178 0.012388
v 0.150653 0.257678 0.003692
v 0.180394 0.262534 0.003337
v 0.139827 0.235564 -0.031331
v 0.150806 0.241917 -0.059914
v 0.197225 0.242089 -0.025672
v 0.189415 0.247378 -0.051522
v 0.144634 0.322426 -0.081264
v 0.164077 0.328801 -0.076890
v 0.152584 0.165388 -0.034645
v 0.169056 0.168565 -0.062002
v 0.196454 0.180357 -0.055248
v 0.184652 0.185729 0.001181
v 0.163603 0.175005 -0.001918
v 0.207182 0.188617 -0.026921
v 0.226628 0.151031 -0.017245
v 0.225041 0.157450 -0.034143
v 0.232471 0.138910 -0.035214
v 0.226513 0.146680 -0.052496
v 0.229773 0.126103 -0.053728
v 0.231671 0.118586 -0.036378
v 0.212932 0.124737 -0.053776
v 0.218365 0.117245 -0.036434
v 0.230549 0.129718 -0.017833
v 0.217007 0.128216 -0.017838
v 0.213461 0.150102 -0.017312
v 0.212152 0.156398 -0.034235
v 0.209852 0.145242 -0.052505
v 0.200621 0.000101 -0.089905
v 0.205493 0.059296 -0.095114
v 0.155034 0.059868 -0.091443
v 0.158370 0.000101 -0.086271
v 0.194921 0.105331 -0.085164
v 0.165175 0.106054 -0.081457
v 0.241231 0.000106 -0.051149
v 0.246900 0.049665 -0.052508
v 0.238722 0.083089 -0.049203
v 0.242825 0.006784 0.011707
v 0.246839 0.047442 -0.011553
v 0.238367 0.072043 -0.024801
v 0.124641 0.045808 -0.047250
v 0.126953 0.000104 -0.043428
v 0.127878 0.078912 -0.036827
v 0.126985 0.037034 0.011012
v 0.127321 0.014718 0.026486
v 0.127509 0.054539 0.012647
v 0.249931 0.036757 0.049551
v 0.246115 0.005516 0.067385
v 0.247527 0.000254 0.129750
v 0.250761 0.029323 0.115532
v 0.244949 0.056851 0.038388
v 0.243052 0.055509 0.109005
v 0.213117 0.000254 0.208969
v 0.212637 0.030264 0.202659
v 0.207187 0.047185 0.190213
v 0.142374 0.000254 0.201026
v 0.142574 0.029896 0.200186
v 0.150891 0.048972 0.194032
v 0.114518 0.000254 0.145426
v 0.114718 0.029896 0.144586
v 0.123036 0.057685 0.142211
v 0.162257 0.084770 0.136822
v 0.195822 0.083481 0.126676
v 0.159567 0.126549 0.039569
v 0.202324 0.129303 0.039924
v 0.196166 0.097685 0.063148
v 0.163509 0.095821 0.063120
v 0.128237 0.102360 0.004204
v 0.137460 0.131609 0.008729
v 0.135648 0.120221 -0.047205
v 0.141217 0.138220 -0.041610
v 0.166668 0.120371 0.019010
v 0.200439 0.118584 0.013119
v 0.199507 0.092881 0.049507
v 0.171118 0.088056 0.051062
v 0.155257 0.129382 -0.002540
v 0.138413 0.096359 -0.004191
v 0.151227 0.136320 -0.042135
v 0.146159 0.117983 -0.049823
v 0.192885 0.101991 -0.068994
v 0.168246 0.102409 -0.065824
v 0.229223 0.084460 -0.039148
v 0.227548 0.074168 -0.018147
v 0.137140 0.080728 -0.028889
v 0.138804 0.057751 0.012432
v 0.228222 0.006375 0.013302
v 0.234353 0.047571 -0.011584
v 0.139658 0.037081 0.011026
v 0.141136 0.013194 0.025964
v 0.166367 0.065878 0.131183
v 0.192381 0.065276 0.120224
v 0.135685 0.051484 0.136277
v 0.227762 0.044791 0.101602
v 0.126181 0.000254 0.138609
v 0.126380 0.029896 0.137769
v 0.232006 0.031923 0.051815
v 0.228909 0.005406 0.065013
v 0.232772 0.049014 0.042795
v 0.162720 0.000102 -0.071413
v 0.193514 0.000103 -0.074199
v 0.227866 0.000107 -0.044238
v 0.140986 0.000105 -0.036753
v 0.137209 0.042959 0.070893
v 0.136797 0.009858 0.074920
v 0.231383 0.000254 0.126030
v 0.205107 0.000254 0.186521
v 0.151089 0.000254 0.180455
v 0.151138 0.472253 -0.001998
v 0.141978 0.472459 -0.031541
v 0.132594 0.457821 0.022248
v 0.200313 0.310356 -0.032602
v 0.111974 0.312685 -0.033620
v 0.183018 0.141448 -0.062567
v 0.195422 0.163613 0.000902
v 0.144209 0.073963 0.083276
vn -0.0028 -0.1353 0.9908
vn -0.0029 -0.1353 0.9908
vn -0.8859 -0.2398 0.3971
vn 0.0241 -0.0578 0.9980
vn -0.0308 -0.0067 0.9995
vn -0.8142 -0.1713 0.5547
vn -0.9431 0.0964 -0.3183
vn -0.9431 0.0963 -0.3183
vn -0.1201 0.6385 -0.7602
vn -0.1200 0.6385 -0.7602
vn 0.8324 0.4495 -0.3241
vn 0.8324 0.4495 -0.3242
vn 0.8234 0.1681 0.5420
vn -0.8433 -0.1987 -0.4994
vn -0.8549 -0.0730 -0.5137
vn -0.8549 -0.0731 -0.5137
vn 0.2359 0.0343 -0.9712
vn 0.2366 0.0495 -0.9703
vn 0.2366 0.0494 -0.9703
vn -0.1679 0.0395 0.9850
vn -0.1679 0.0394 0.9850
vn -0.9410 -0.0574 0.3336
vn -0.9410 -0.0575 0.3336
vn 0.9022 0.0975 -0.4202
vn 0.8779 0.2295 -0.4202
vn 0.8140 0.0607 0.5777
vn 0.7776 0.1317 0.6148
vn 0.7776 0.1318 0.6148
vn 0.2847 -0.3063 -0.9084
vn 0.2847 -0.3063 -0.9083
vn 0.2848 -0.3063 -0.9083
vn -0.2522 0.8083 0.5321
vn -0.1591 0.8104 0.5639
vn -0.1561 0.7994 0.5802
vn -0.1358 0.8100 0.5705
vn -0.2361 0.8155 0.5284
vn -0.2362 0.8155 0.5284
vn -0.2363 0.8166 0.5267
vn -0.2363 0.8166 0.5266
vn -0.1872 -0.9228 -0.3368
vn -0.1871 -0.9228 -0.3369
vn -0.1872 -0.9228 -0.3369
vn 0.2230 -0.7617 -0.6084
vn 0.2229 -0.7617 -0.6084
vn 0.1542 -0.8329 -0.5315
vn 0.2030 -0.8318 -0.5166
vn 0.2030 -0.8318 -0.5167
vn 0.4032 -0.7731 -0.4897
vn 0.4033 -0.7731 -0.4896
vn -0.9519 -0.2357 -0.1958
vn 0.9860 0.1321 -0.1021
vn 0.9860 0.1321 -0.1020
vn -0.3559 0.8503 -0.3876
vn -0.3558 0.8504 -0.3877
vn -0.3436 0.9375 0.0540
vn -0.3436 0.9376 0.0540
vn 0.2902 0.9535 0.0818
vn 0.3776 0.8681 -0.3222
vn -0.9805 -0.0888 -0.1754
vn 0.9456 0.2904 -0.1469
vn -0.0985 0.8790 -0.4665
vn 0.1997 -0.9798 -0.0093
vn 0.1998 -0.9798 -0.0093
vn 0.3475 -0.9374 0.0234
vn 0.3475 -0.9374 0.0233
vn 0.3761 -0.9050 0.1987
vn 0.3761 -0.9050 0.1986
vn 0.2005 -0.9559 0.2145
vn 0.2006 -0.9559 0.2145
vn 0.1805 -0.9676 0.1765
vn 0.1768 -0.9816 0.0724
vn 0.1767 -0.9816 0.0724
vn 0.9280 0.3688 0.0529
vn 0.9529 0.1662 -0.2538
vn 0.0830 -0.9081 -0.4104
vn -0.0003 -0.0259 0.9997
vn -0.0004 -0.0258 0.9997
vn -0.0730 0.9315 0.3565
vn -0.0729 0.9315 0.3565
vn -0.0730 0.9315 0.3564
vn -0.0033 0.0602 -0.9982
vn -0.0032 0.0602 -0.9982
vn -0.0034 0.0603 -0.9982
vn -0.0033 0.0603 -0.9982
vn -0.0704 0.8565 -0.5112
vn -0.0703 0.8566 -0.5112
vn -0.0705 0.8565 -0.5113
vn -0.0704 0.8566 -0.5112
vn 0.0892 -0.8533 0.5138
vn 0.9920 -0.0320 -0.1224
vn 0.9650 0.1721 0.1977
vn 0.9152 0.3753 -0.1468
vn 0.9953 -0.0441 0.0867
vn -0.0788 -0.0856 -0.9932
vn -0.0788 -0.0857 -0.9932
vn -0.0861 0.2100 -0.9739
vn -0.0862 0.2101 -0.9739
vn 0.6934 -0.1102 -0.7121
vn 0.6934 -0.1101 -0.7121
vn 0.7053 0.2754 -0.6532
vn 0.9939 -0.1095 -0.0099
vn 0.9939 -0.1094 -0.0100
vn 0.9563 0.2853 0.0641
vn 0.9563 0.2854 0.0640
vn -0.8045 -0.0929 -0.5866
vn -0.8046 -0.0931 -0.5864
vn -0.8046 -0.0930 -0.5865
vn -0.8046 -0.0931 -0.5865
vn -0.8222 0.2680 -0.5022
vn -0.8221 0.2680 -0.5022
vn -0.9992 -0.0325 0.0226
vn -0.9972 0.0650 0.0383
vn 0.9908 -0.1319 -0.0304
vn 0.9908 -0.1320 -0.0303
vn 0.9616 0.2733 0.0251
vn 0.9127 0.0955 0.3974
vn 0.9127 0.0956 0.3974
vn 0.8243 0.4192 0.3807
vn 0.8243 0.4191 0.3807
vn -0.0736 0.1183 0.9902
vn -0.0736 0.1184 0.9902
vn 0.0146 0.4581 0.8888
vn 0.0146 0.4580 0.8888
vn -0.8939 0.0187 0.4479
vn -0.8120 0.3703 0.4512
vn -0.8120 0.3704 0.4511
vn 0.1084 0.8535 0.5096
vn -0.4856 0.7812 0.3924
vn 0.5693 0.7536 0.3287
vn -0.0408 0.6005 0.7985
vn -0.0410 0.6004 0.7987
vn -0.0407 0.6007 0.7984
vn -0.0408 0.6006 0.7985
vn -0.8026 0.2434 0.5446
vn -0.8026 0.2434 0.5445
vn -0.9520 0.3045 -0.0312
vn -0.9521 0.3042 -0.0311
vn -0.9518 0.3050 -0.0313
vn -0.0364 0.9400 -0.3393
vn 0.9963 -0.0614 0.0594
vn 0.9963 -0.0614 0.0595
vn 0.1076 -0.8742 0.4735
vn 0.1076 -0.8742 0.4734
vn 0.1077 -0.8742 0.4734
vn 0.3506 0.9361 0.0271
vn 0.3507 0.9361 0.0271
vn -0.4738 -0.8641 0.1697
vn -0.4737 -0.8642 0.1697
vn 0.2052 0.9679 0.1452
vn -0.5126 -0.7644 -0.3911
vn -0.0698 0.3605 -0.9302
vn 0.0474 0.9759 0.2128
vn 0.0474 0.9760 0.2127
vn 0.2980 0.9331 0.2011
vn 0.4610 0.7950 0.3942
vn 0.4611 0.7950 0.3942
vn -0.3459 0.9041 0.2511
vn -0.3647 0.8234 0.4346
vn -0.3647 0.8235 0.4346
vn -0.3648 0.8234 0.4346
vn 0.0447 0.5024 0.8635
vn 0.0446 0.5024 0.8635
vn 0.2855 0.4187 0.8621
vn 0.2854 0.4188 0.8621
vn 0.0467 0.5505 0.8335
vn 0.0192 -0.0792 0.9967
vn 0.0191 -0.0792 0.9967
vn -0.3114 0.2893 -0.9051
vn -0.3114 0.2894 -0.9051
vn -0.3115 0.2894 -0.9051
vn -0.2818 0.2402 -0.9289
vn -0.0999 0.4818 -0.8706
vn -0.0999 0.4817 -0.8706
vn -0.5046 -0.0211 -0.8631
vn -0.4448 0.0889 -0.8912
vn 0.0700 -0.4786 -0.8752
vn 0.0701 -0.4786 -0.8752
vn 0.0057 -0.4765 -0.8791
vn 0.0058 -0.4765 -0.8792
vn -0.5602 0.8283 0.0057
vn -0.5602 0.8284 0.0057
vn -0.0000 -1.0000 0.0001
vn 0.0467 -0.9933 0.1060
vn 0.0468 -0.9933 0.1060
vn -0.0984 -0.9741 0.2038
vn -0.0982 -0.9741 0.2039
vn -0.0983 -0.9741 0.2038
vn -0.0203 -0.9871 0.1590
vn -0.0203 -0.9871 0.1589
vn 0.9891 -0.1470 0.0003
vn 0.9673 0.2528 0.0214
vn -0.9961 0.0017 -0.0882
vn -0.9986 -0.0387 -0.0371
vn -0.9865 0.0002 -0.1636
vn -0.9864 0.0020 -0.1641
vn -0.9868 -0.0057 -0.1617
vn -0.9177 0.3906 -0.0723
vn 0.0188 -0.9962 -0.0847
vn 0.0186 -0.9962 -0.0847
vn 0.0187 -0.9962 -0.0847
vn -0.0000 -1.0000 -0.0000
vn -0.0684 -0.9966 -0.0451
vn -0.0360 -0.9921 -0.1198
vn 0.8283 0.4997 -0.2533
vn -0.1144 0.6765 -0.7275
vn -0.1215 0.6677 -0.7345
vn -0.1145 0.6764 -0.7276
vn 0.7336 0.1650 0.6593
vn -0.1614 -0.1367 0.9774
vn -0.8085 -0.1097 0.5781
vn -0.9411 0.0520 -0.3341
vn 0.7951 0.1533 -0.5867
vn 0.8306 0.0693 0.5526
vn 0.9504 -0.0737 -0.3022
vn 0.8683 0.0111 0.4960
vn -0.0167 0.0674 -0.9976
vn -0.7574 -0.2161 -0.6162
vn -0.7846 -0.2144 -0.5817
vn -0.8380 -0.2660 0.4765
vn -0.8372 -0.2672 0.4771
vn -0.8366 -0.2682 0.4776
vn -0.8365 -0.2684 0.4777
vn 0.2339 0.0133 -0.9722
vn -0.1244 0.1291 -0.9838
vn 0.8930 0.2681 -0.3614
vn 0.3961 0.2433 -0.8854
vn -0.4975 -0.2388 -0.8340
vn -0.5508 0.2742 -0.7883
vn -0.6726 -0.2320 -0.7027
vn -0.0874 0.0024 0.9962
vn -0.9943 0.0194 0.1046
vn 0.7160 0.3410 0.6091
vn 0.9875 0.1565 -0.0182
vn -0.2710 0.2238 0.9362
vn 0.8259 0.2315 0.5140
vn 0.8003 -0.4170 -0.4309
vn 0.9319 0.2907 0.2168
vn 0.8816 0.4582 0.1135
vn 0.8480 0.1625 0.5044
vn 0.5993 0.7234 0.3428
vn 0.1365 0.9526 0.2718
vn -0.9989 0.0095 0.0455
vn -0.1963 0.9479 0.2508
vn -0.5844 0.7996 -0.1384
vn 0.8187 0.4807 -0.3142
vn 0.8300 0.1465 0.5382
vn 0.0168 -0.1690 0.9855
vn -0.9448 -0.3002 0.1312
vn -0.9936 0.1117 -0.0157
vn -0.1219 0.6672 -0.7348
vn -0.8459 -0.2923 0.4460
vn -0.8577 -0.3217 -0.4010
vn -0.7701 -0.2623 -0.5815
vn 0.1589 0.1813 -0.9705
vn 0.8130 0.1357 -0.5663
vn 0.8648 0.1654 0.4742
vn 0.7832 0.0506 -0.6197
vn -0.8531 0.1672 -0.4942
vn -0.9480 0.1697 0.2693
vn -0.1119 -0.0670 0.9915
vn 0.7766 0.2688 0.5698
vn 0.1079 0.9363 0.3344
vn 0.7443 0.1047 0.6595
vn 0.9806 0.1915 -0.0414
vn 0.7625 0.5191 0.3862
vn 0.9991 -0.0290 0.0298
vn 0.9922 -0.1236 -0.0155
vn 0.8000 0.5897 0.1105
vn -0.3598 0.8784 0.3147
vn -0.1385 0.9272 0.3480
vn -0.9692 0.2404 -0.0539
vn -0.9869 -0.0073 -0.1612
vn -0.8257 0.2160 0.5212
vn -0.9961 -0.0821 -0.0327
vn -0.9773 0.2101 0.0265
vn -0.9779 0.1955 -0.0734
vn 0.3355 0.1084 -0.9358
vn 0.6866 0.2828 -0.6698
vn -0.3036 0.4385 -0.8459
vn 0.3220 0.1851 -0.9285
vt 0.121881 0.908308
vt 0.353125 0.875000
vt 0.115130 0.333848
vt 0.035944 0.923933
vt 0.840625 0.584375
vt 0.677696 0.602075
vt 0.687102 0.658651
vt 0.672036 0.648585
vt 0.671823 0.648901
vt 0.666141 0.590025
vt 0.666581 0.588549
vt 0.667068 0.588911
vt 0.671181 0.650593
vt 0.675275 0.649107
vt 0.674036 0.649761
vt 0.673359 0.651418
vt 0.670194 0.592370
vt 0.684291 0.654986
vt 0.685610 0.654392
vt 0.683003 0.654842
vt 0.683836 0.656230
vt 0.676888 0.600340
vt 0.685919 0.655563
vt 0.677211 0.601900
vt 0.676025 0.600570
vt 0.677866 0.600914
vt 0.678547 0.600172
vt 0.686522 0.658354
vt 0.665221 0.590346
vt 0.674206 0.652910
vt 0.668811 0.593438
vt 0.675298 0.599095
vt 0.678556 0.602724
vt 0.679349 0.600539
vt 0.681329 0.600646
vt 0.680006 0.599651
s 1
usemtl lpRobot
f 5/1/1 4/1/2 6/1/2
f 4/1/2 7/1/2 6/1/2
f 9/2/3 7/2/3 4/2/3
f 7/2/3 9/2/3 8/2/3
f 5/1/4 10/1/4 4/1/4
f 10/1/4 5/1/4 11/1/4
f 11/1/5 12/1/5 10/1/5
f 12/1/5 11/1/5 13/1/5
f 10/2/6 12/2/6 14/2/6
f 12/2/6 15/2/6 14/2/6
f 16/1/7 14/1/7 15/1/7
f 15/1/7 17/1/8 16/1/7
f 19/1/9 16/1/9 17/1/10
f 16/1/9 19/1/9 18/1/9
f 20/1/11 19/1/12 21/1/11
f 19/1/12 20/1/11 18/1/11
f 20/1/13 13/1/13 11/1/13
f 13/1/13 20/1/13 21/1/13
f 23/2/14 22/2/14 9/2/14
f 9/2/14 22/2/14 8/2/14
f 8/2/15 22/2/16 25/2/16
f 8/2/15 25/2/16 24/2/15
f 27/1/17 26/1/17 23/1/17
f 23/1/17 26/1/17 22/1/17
f 22/1/18 26/1/18 28/1/18
f 22/1/18 28/1/18 25/1/19
f 30/1/20 29/1/20 7/1/20
f 6/1/21 7/1/20 29/1/20
f 24/2/22 30/2/22 8/2/23
f 7/2/22 8/2/23 30/2/22
f 32/1/24 26/1/24 27/1/24
f 26/1/24 32/1/24 31/1/24
f 26/1/25 31/1/25 33/1/25
f 26/1/25 33/1/25 28/1/25
f 5/1/26 6/1/26 32/1/26
f 32/1/26 6/1/26 31/1/26
f 6/1/27 33/1/27 31/1/28
f 33/1/27 6/1/27 29/1/28
f 34/2/29 23/2/30 35/2/31
f 23/2/30 34/2/29 27/2/29
f 12/3/32 37/3/32 36/3/32
f 37/3/32 12/3/32 13/3/32
f 38/3/33 12/3/33 36/3/33
f 15/3/33 12/3/33 38/3/33
f 15/3/34 39/3/34 17/3/34
f 39/3/34 15/3/34 38/3/34
f 39/3/35 19/3/35 17/3/35
f 19/3/35 39/3/35 40/3/35
f 19/3/36 41/3/37 21/3/38
f 41/3/37 19/3/36 40/3/36
f 37/3/39 21/3/38 41/3/37
f 13/3/39 21/3/38 37/3/39
f 42/3/40 14/3/41 43/3/42
f 10/3/40 14/3/41 42/3/40
f 44/3/43 14/3/44 16/3/43
f 14/3/44 44/3/43 43/3/44
f 18/3/45 44/3/45 16/3/45
f 44/3/45 18/3/45 45/3/45
f 46/3/46 18/3/46 20/3/47
f 18/3/46 46/3/46 45/3/46
f 20/3/48 47/3/49 46/3/48
f 47/3/49 20/3/48 11/3/48
f 42/3/50 4/3/50 10/3/50
f 4/3/50 42/3/50 48/3/50
f 11/3/51 5/3/52 47/3/51
f 5/3/52 49/3/52 47/3/51
f 48/3/53 9/3/54 4/3/53
f 9/3/54 48/3/53 50/3/54
f 51/3/55 9/3/55 50/3/56
f 23/3/55 9/3/55 51/3/55
f 32/3/57 53/3/57 52/3/57
f 53/3/57 32/3/57 27/3/57
f 49/3/58 32/3/58 52/3/58
f 5/3/58 32/3/58 49/3/58
f 51/3/59 54/3/59 23/3/59
f 35/3/59 23/3/59 54/3/59
f 55/3/60 27/3/60 34/3/60
f 27/3/60 55/3/60 53/3/60
f 34/3/61 54/3/61 55/3/61
f 54/3/61 34/3/61 35/3/61
f 57/3/62 24/3/63 25/3/62
f 24/3/63 57/3/62 56/3/63
f 28/3/64 57/3/65 25/3/65
f 57/3/65 28/3/64 58/3/64
f 60/3/66 29/3/67 30/3/66
f 29/3/67 60/3/66 59/3/67
f 30/3/68 24/3/69 60/3/68
f 60/3/68 24/3/69 56/3/68
f 58/3/70 33/3/70 61/3/70
f 28/3/70 33/3/70 58/3/70
f 33/3/71 59/3/71 61/3/72
f 59/3/71 33/3/71 29/3/71
f 62/1/73 64/1/73 63/1/73
f 65/1/74 64/1/74 66/1/74
f 69/3/75 66/3/75 67/3/75
f 66/3/75 69/3/75 68/3/75
f 71/3/76 62/3/77 72/3/76
f 62/3/77 71/3/76 70/3/76
f 73/3/78 72/3/79 63/3/80
f 63/3/80 72/3/79 62/3/78
f 65/3/81 68/3/82 74/3/83
f 68/3/82 65/3/81 66/3/84
f 74/3/85 73/3/86 65/3/87
f 65/3/87 73/3/86 63/3/88
f 71/3/89 69/3/89 70/3/89
f 70/3/89 69/3/89 67/3/89
f 66/1/90 64/1/90 67/1/90
f 64/1/91 62/1/91 70/1/91
f 64/1/92 65/1/92 63/1/92
f 64/1/93 70/1/93 67/1/93
f 77/2/94 76/2/95 75/2/94
f 77/2/94 75/2/94 78/2/94
f 77/1/96 79/1/97 76/1/97
f 79/1/97 77/1/96 80/1/97
f 82/2/98 75/2/99 76/2/98
f 75/2/99 82/2/98 81/2/98
f 83/1/100 76/1/100 79/1/100
f 76/1/100 83/1/100 82/1/100
f 85/2/101 81/2/102 82/2/102
f 81/2/102 85/2/101 84/2/102
f 86/1/103 82/1/104 83/1/104
f 82/1/104 86/1/103 85/1/104
f 87/2/105 77/2/106 78/2/107
f 87/2/105 78/2/107 88/2/108
f 77/1/109 89/1/109 80/1/110
f 89/1/109 77/1/109 87/1/109
f 90/2/111 87/2/111 88/2/111
f 88/2/111 91/2/111 90/2/111
f 87/1/112 92/1/112 89/1/112
f 92/1/112 87/1/112 90/1/112
f 96/1/113 94/1/114 93/1/114
f 94/1/114 96/1/113 95/1/113
f 98/1/115 93/1/115 97/1/115
f 93/1/115 98/1/115 96/1/115
f 100/1/116 95/1/116 96/1/117
f 95/1/116 100/1/116 99/1/117
f 101/1/118 96/1/119 98/1/119
f 96/1/119 101/1/118 100/1/118
f 102/4/120 100/4/121 103/4/120
f 100/4/121 102/4/120 99/4/121
f 104/4/122 100/4/122 101/4/122
f 100/4/122 104/4/122 103/4/123
f 103/4/124 106/4/124 105/4/124
f 103/4/124 105/4/124 102/4/124
f 104/4/125 107/4/125 106/4/125
f 104/4/125 106/4/125 103/4/126
f 101/4/127 108/4/127 104/4/127
f 108/4/127 101/4/127 109/4/127
f 104/4/128 108/4/128 107/4/128
f 98/1/129 109/1/129 101/1/129
f 111/1/130 110/1/131 112/1/132
f 110/1/131 113/1/133 112/1/132
f 115/1/134 114/1/134 110/1/135
f 110/1/135 114/1/134 113/1/134
f 115/1/136 117/1/137 116/1/136
f 115/1/136 116/1/136 114/1/138
f 118/3/139 111/3/139 119/3/139
f 111/3/139 118/3/139 110/3/139
f 111/3/140 120/3/141 119/3/140
f 120/3/141 111/3/140 112/3/141
f 121/3/142 112/3/143 113/3/142
f 112/3/143 121/3/142 120/3/144
f 118/3/145 115/3/145 110/3/146
f 115/3/145 118/3/145 122/3/145
f 121/3/147 114/3/148 123/3/148
f 114/3/148 121/3/147 113/3/148
f 117/3/149 122/3/149 124/3/149
f 122/3/149 117/3/149 115/3/149
f 114/3/150 116/3/150 123/3/150
f 116/3/150 125/3/150 123/3/150
f 125/3/151 117/3/151 124/3/151
f 117/3/151 125/3/151 116/3/151
f 127/3/152 126/3/153 80/3/152
f 79/3/152 80/3/152 126/3/153
f 83/3/154 126/3/154 128/3/154
f 126/3/154 83/3/154 79/3/154
f 86/3/155 128/3/156 129/3/155
f 128/3/156 86/3/155 83/3/156
f 127/3/157 89/3/157 130/3/157
f 89/3/157 127/3/157 80/3/157
f 89/3/158 92/3/159 130/3/160
f 130/3/160 92/3/159 131/3/159
f 133/3/161 84/3/162 85/3/162
f 84/3/162 133/3/161 132/3/162
f 129/3/163 133/3/164 86/3/163
f 86/3/163 133/3/164 85/3/164
f 90/3/165 91/3/165 134/3/165
f 134/3/165 91/3/165 135/3/165
f 92/3/166 134/3/167 131/3/166
f 134/3/167 92/3/166 90/3/167
f 108/3/168 109/3/169 136/3/169
f 109/3/169 137/3/170 136/3/169
f 107/3/171 108/3/171 138/3/171
f 138/3/171 108/3/171 136/3/171
f 139/3/172 109/3/173 98/3/172
f 109/3/173 139/3/172 137/3/173
f 141/3/174 140/3/174 106/3/174
f 106/3/174 140/3/174 105/3/174
f 141/3/175 107/3/175 138/3/175
f 107/3/175 141/3/175 106/3/175
f 93/3/176 94/3/176 142/3/176
f 94/3/176 143/3/177 142/3/176
f 93/3/178 144/3/178 97/3/178
f 144/3/178 93/3/178 142/3/179
f 144/3/180 98/3/180 97/3/181
f 98/3/180 144/3/180 139/3/180
f 78/3/182 146/3/182 145/3/182
f 146/3/182 78/3/182 75/3/182
f 75/3/182 147/3/182 146/3/182
f 147/3/182 75/3/182 81/3/182
f 132/3/183 147/3/184 84/3/183
f 81/3/183 84/3/183 147/3/184
f 145/3/182 88/3/182 78/3/182
f 88/3/182 145/3/182 148/3/182
f 91/3/185 148/3/186 135/3/187
f 148/3/186 91/3/185 88/3/187
f 132/5/188 135/5/188 148/5/188
f 132/5/188 148/5/188 147/5/189
f 147/5/182 148/5/182 146/5/182
f 146/5/182 148/5/182 145/5/182
f 133/5/190 142/5/190 132/5/190
f 129/6/191 144/6/191 133/6/191
f 135/5/192 150/5/192 149/5/192
f 134/5/193 149/5/193 131/5/193
f 150/5/194 140/5/195 141/5/196
f 149/7/197 141/7/197 138/7/197
f 151/3/198 94/3/199 95/3/198
f 94/3/199 151/3/198 143/3/200
f 95/3/201 152/3/201 151/3/201
f 152/3/201 95/3/201 99/3/201
f 153/3/201 152/3/201 102/3/201
f 99/3/201 102/3/201 152/3/201
f 153/3/201 105/3/201 140/3/201
f 105/3/201 153/3/201 102/3/201
f 143/5/202 150/5/202 135/5/202
f 143/5/202 135/5/202 132/5/202
f 151/5/203 140/5/203 150/5/203
f 151/5/203 150/5/203 143/5/203
f 153/5/201 151/5/201 152/5/201
f 151/5/201 153/5/201 140/5/201
f 154/8/204 41/8/204 155/8/204
f 155/9/205 40/9/206 3/9/207
f 156/10/208 37/10/208 154/10/208
f 1/11/209 36/11/209 156/11/209
f 2/12/210 38/12/210 36/12/210
f 3/13/211 39/13/211 38/13/211
f 46/14/212 157/14/212 55/14/212
f 47/5/213 49/5/213 157/5/213
f 157/5/214 52/5/214 53/5/214
f 49/5/215 52/5/215 157/5/215
f 45/15/216 55/15/216 44/15/216
f 44/16/217 54/16/217 43/16/217
f 54/5/218 51/5/218 158/5/218
f 48/5/219 42/5/220 158/5/221
f 42/17/220 43/17/222 158/17/221
f 58/5/223 74/5/223 57/5/223
f 159/18/224 126/18/224 127/18/224
f 58/5/225 73/5/225 74/5/225
f 73/5/225 58/5/225 61/5/225
f 68/19/226 126/19/226 159/19/226
f 57/20/227 159/20/227 124/20/227
f 124/21/228 159/21/228 127/21/228
f 125/5/229 127/5/229 130/5/229
f 60/5/230 122/5/230 160/5/230
f 56/5/231 124/5/231 122/5/231
f 59/5/232 160/5/232 61/5/232
f 61/5/233 72/5/233 73/5/233
f 119/22/234 160/22/234 122/22/234
f 119/22/235 71/22/235 160/22/235
f 126/23/236 68/23/236 69/23/236
f 128/24/237 69/24/237 129/24/237
f 129/6/238 119/6/238 144/6/238
f 71/25/239 119/25/239 129/25/239
f 120/26/240 137/26/240 139/26/240
f 121/27/241 136/27/241 137/27/241
f 123/5/242 130/5/242 131/5/242
f 121/27/243 161/27/243 136/27/243
f 131/28/244 161/28/244 121/28/244
f 155/9/245 41/9/245 40/9/245
f 154/29/246 37/29/246 41/29/246
f 156/10/247 36/10/247 37/10/247
f 2/12/248 36/12/248 1/12/248
f 3/13/249 38/13/249 2/13/249
f 3/13/207 40/13/206 39/13/250
f 48/5/251 158/5/251 50/5/251
f 158/5/252 51/5/252 50/5/252
f 43/30/253 54/30/253 158/30/253
f 44/16/254 55/16/254 54/16/254
f 46/14/255 55/14/255 45/14/255
f 47/31/256 157/31/256 46/31/256
f 157/5/257 53/5/257 55/5/257
f 57/5/258 124/5/258 56/5/258
f 56/5/259 122/5/259 60/5/259
f 60/5/260 160/5/260 59/5/260
f 61/5/261 160/5/261 72/5/261
f 119/22/262 122/22/262 118/22/262
f 160/32/263 71/32/263 72/32/263
f 129/6/264 69/6/264 71/6/264
f 144/33/265 119/33/265 120/33/265
f 133/5/266 144/5/266 142/5/266
f 132/5/267 142/5/267 143/5/267
f 120/26/268 139/26/268 144/26/268
f 136/34/269 161/34/269 138/34/269
f 121/27/270 137/27/270 120/27/270
f 149/7/271 138/7/271 161/7/271
f 150/5/194 141/5/196 149/5/272
f 123/5/273 131/5/273 121/5/273
f 135/35/274 149/35/274 134/35/274
f 131/36/275 149/36/275 161/36/275
f 125/5/276 130/5/276 123/5/276
f 68/19/277 159/19/277 74/19/277
f 126/23/278 69/23/278 128/23/278
f 124/21/279 127/21/279 125/21/279
f 57/20/280 74/20/280 159/20/280
