# Blender 4.4.3
# www.blender.org
o Lijeva_nadkoljenica
v 0.021213 0.860036 0.073018
v 0.073355 0.928161 0.044408
v 0.050224 0.911388 0.066552
v 0.017326 0.812842 0.035426
v 0.022965 0.819721 -0.017269
v 0.034297 0.866456 -0.036626
v 0.074529 0.935479 -0.003513
v 0.050954 0.902497 -0.033503
v 0.142997 0.671701 -0.018918
v 0.139150 0.674560 0.040706
v 0.128703 0.746529 0.036395
v 0.129863 0.747462 0.000023
v 0.099867 0.691956 0.068819
v 0.087471 0.757323 0.072116
v 0.067205 0.669057 0.066615
v 0.054913 0.747628 0.071327
v 0.054738 0.805570 0.067002
v 0.074760 0.814451 0.066493
v 0.055784 0.839988 0.062430
v 0.065044 0.851080 0.062554
v 0.148636 0.573253 -0.004509
v 0.145804 0.575358 0.027917
v 0.116876 0.588169 0.055274
v 0.090873 0.569421 0.051508
v 0.107007 0.528413 0.042750
v 0.080748 0.544511 -0.006111
v 0.136217 0.569683 -0.004547
v 0.134557 0.567863 0.019347
v 0.110525 0.528260 0.027004
v 0.118774 0.747808 -0.000070
v 0.129883 0.671701 -0.018918
v 0.117845 0.747220 0.031461
v 0.087473 0.759020 0.059145
v 0.074761 0.816148 0.053981
v 0.066948 0.851928 0.053523
v 0.078239 0.551605 0.020462
v 0.090175 0.567154 0.033956
v 0.067205 0.669057 0.052630
v 0.054913 0.747628 0.057342
v 0.054738 0.805570 0.053017
v 0.052926 0.839988 0.049351
v 0.063151 0.882922 0.054221
v 0.081143 0.892477 0.027740
v 0.058317 0.871267 -0.024323
v 0.076211 0.893668 -0.006402
v 0.091466 0.857116 0.036772
v 0.087937 0.860145 -0.004475
v 0.054358 0.844947 -0.024323
v 0.022362 0.779667 0.035426
v 0.036781 0.794769 -0.022019
v 0.104552 0.817880 0.009613
v 0.095365 0.813727 0.044261
v 0.087818 0.806305 -0.024172
v 0.035818 0.735322 -0.005343
v 0.082733 0.742522 -0.037889
v 0.043081 0.669826 0.029008
v 0.059635 0.660016 -0.020170
v 0.100496 0.667492 -0.032520
v 0.094794 0.559356 -0.041381
v 0.017326 0.812842 0.035426
v 0.022965 0.819721 -0.017269
v 0.022362 0.779667 0.035426
vn 0.9871 0.1528 0.0485
vn 0.9871 0.1528 0.0484
vn 0.6412 0.1122 0.7591
vn 0.6412 0.1123 0.7591
vn -0.0167 -0.0584 0.9982
vn -0.0166 -0.0584 0.9982
vn -0.0344 0.0823 0.9960
vn -0.0628 0.1112 0.9918
vn -0.0628 0.1111 0.9918
vn 0.9957 0.0625 0.0689
vn 0.6230 -0.0288 0.7817
vn -0.0016 -0.1398 0.9902
vn -0.0015 -0.1398 0.9902
vn 0.4047 -0.2512 0.8793
vn 0.4047 -0.2511 0.8793
vn 0.4048 -0.2511 0.8792
vn 0.4121 -0.9104 0.0375
vn 0.4120 -0.9104 0.0375
vn 0.4128 -0.9101 0.0363
vn 0.7992 -0.5974 -0.0661
vn 0.7993 -0.5974 -0.0661
vn 0.7992 -0.5974 -0.0662
vn 0.0072 0.2426 -0.9701
vn 0.0072 0.2425 -0.9701
vn 0.0212 -0.1408 -0.9898
vn 0.0418 0.9988 0.0236
vn 0.0418 0.9988 0.0237
vn 0.2714 0.9618 -0.0362
vn 0.2713 0.9618 -0.0363
vn 0.9751 0.2197 0.0298
vn 0.9751 0.2198 0.0290
vn 0.9751 0.2197 0.0296
vn 0.9751 0.2197 0.0293
vn 0.9640 0.2403 0.1137
vn 0.9640 0.2403 0.1136
vn -0.9880 -0.1546 -0.0000
vn -1.0000 -0.0030 -0.0000
vn -0.9945 0.0015 0.1051
vn -0.9945 0.0015 0.1050
vn -0.9721 -0.2314 0.0381
vn -0.9721 -0.2313 0.0381
vn -0.9721 -0.2313 0.0382
vn -0.7075 0.7044 0.0576
vn 0.6912 0.0008 0.7227
vn 0.9805 0.1893 0.0529
vn 0.4738 -0.1437 -0.8688
vn 0.7416 0.0759 -0.6665
vn 0.4749 -0.1593 0.8655
vn 0.5563 0.0495 0.8295
vn 0.9622 0.2648 -0.0629
vn 0.4658 -0.0701 -0.8821
vn 0.5904 0.1611 -0.7909
vn 0.4942 -0.2133 0.8428
vn 0.1760 -0.6222 0.7628
vn -0.8529 -0.4109 -0.3221
vn 0.5407 0.1287 0.8313
vn 0.9541 0.1321 0.2688
vn -0.0345 -0.0338 -0.9988
vn 0.8570 0.1754 -0.4846
vn -0.4351 -0.0660 0.8980
vn -0.9648 -0.0565 -0.2570
vn 0.4369 0.1769 0.8820
vn 0.9253 0.2596 0.2765
vn -0.0899 0.2162 -0.9722
vn 0.8354 0.2380 -0.4954
vn -0.5145 0.0623 0.8552
vn -0.9330 -0.2428 -0.2656
vn -0.2648 -0.1310 -0.9554
vn 0.3714 0.2739 -0.8872
vn -0.6941 -0.1508 0.7039
vn -0.9392 -0.2052 -0.2752
vn -0.3037 0.0937 -0.9481
vn 0.4297 -0.0997 -0.8975
vn -0.6811 -0.2522 0.6874
vn 0.8368 -0.0710 0.5429
vn 0.9888 0.0495 -0.1411
vn 0.7262 -0.0306 -0.6868
vn 0.7053 0.3616 0.6097
vn 0.9388 0.3212 -0.1244
vn 0.5339 -0.0803 -0.8417
vn 0.9353 0.3496 -0.0544
vn 0.9804 0.1945 0.0325
vn 0.6906 0.0954 0.7170
vn 0.4371 0.1910 0.8789
vn -0.2441 -0.0517 0.9684
vn 0.3715 0.3183 -0.8722
vn 0.1217 -0.4049 -0.9062
vn -0.2526 0.0441 -0.9666
vn 0.7144 0.0922 -0.6937
vn -0.5329 -0.2205 -0.8169
vn -0.7660 -0.5454 0.3404
vn -0.4123 0.0750 0.9079
vn 0.7105 0.1186 -0.6936
vn -0.5681 -0.0177 -0.8228
vn -0.9580 0.0424 0.2835
vn -0.8736 -0.2129 -0.4375
vn 0.6605 0.0267 -0.7503
vn -0.5467 -0.2686 0.7931
vn -0.9587 -0.2840 -0.0147
vn -0.3747 -0.2697 0.8870
vn -0.3748 -0.2697 0.8870
vn -0.9121 -0.4071 -0.0476
vn -0.9121 -0.4071 -0.0477
vn -0.9810 -0.1489 -0.1244
vt 0.106256 0.900495
vt 0.121881 0.908308
vt 0.353125 0.875000
vt 0.115130 0.333848
vt 0.840625 0.584375
vt 0.652925 0.577966
vt 0.655847 0.641509
vt 0.655694 0.641655
vt 0.654667 0.577019
vt 0.657065 0.645191
vt 0.653918 0.578801
vt 0.653184 0.579540
vt 0.656895 0.643522
vt 0.657124 0.642004
vt 0.656395 0.577952
vt 0.658244 0.645273
vt 0.654985 0.579884
vt 0.654605 0.580659
vt 0.658993 0.643229
vt 0.658968 0.642381
vt 0.657435 0.578880
vt 0.660289 0.646654
vt 0.661096 0.644852
vt 0.661725 0.643472
vt 0.657815 0.580743
vt 0.663445 0.647528
vt 0.664106 0.645931
vt 0.664622 0.644809
vt 0.660787 0.582093
vt 0.656069 0.642787
vt 0.657309 0.641950
vt 0.654254 0.580886
vt 0.658674 0.580355
vt 0.662730 0.647884
f 10/1/1 12/1/2 11/1/2
f 12/1/2 10/1/1 9/1/2
f 14/2/3 13/2/3 11/2/4
f 10/2/3 11/2/4 13/2/3
f 16/2/5 13/2/6 14/2/6
f 13/2/6 16/2/5 15/2/5
f 14/2/7 17/2/7 16/2/7
f 17/2/7 14/2/7 18/2/7
f 19/2/8 17/2/8 18/2/8
f 18/2/8 20/2/9 19/2/8
f 9/3/10 22/3/10 21/3/10
f 22/3/10 9/3/10 10/3/10
f 10/2/11 23/2/11 22/2/11
f 23/2/11 10/2/11 13/2/11
f 15/2/12 24/2/12 23/2/12
f 15/2/12 23/2/12 13/2/13
f 25/3/14 23/3/14 24/3/15
f 25/3/16 22/3/16 23/3/16
f 28/4/17 21/4/18 22/4/19
f 21/4/18 28/4/17 27/4/18
f 22/4/20 25/4/21 28/4/22
f 28/4/22 25/4/21 29/4/20
f 12/4/23 31/4/23 30/4/23
f 31/4/23 12/4/23 9/4/24
f 9/4/25 21/4/25 31/4/25
f 31/4/25 21/4/25 27/4/25
f 30/4/26 32/4/26 12/4/27
f 11/4/27 12/4/27 32/4/26
f 14/4/28 11/4/29 33/4/28
f 11/4/29 32/4/29 33/4/28
f 18/4/30 33/4/31 34/4/32
f 33/4/31 18/4/30 14/4/33
f 20/4/34 34/4/35 35/4/34
f 34/4/35 20/4/34 18/4/35
f 39/4/36 15/4/36 16/4/36
f 15/4/36 39/4/36 38/4/36
f 40/4/37 39/4/37 17/4/37
f 17/4/37 39/4/37 16/4/37
f 41/4/38 40/4/38 19/4/38
f 19/4/38 40/4/38 17/4/39
f 38/4/40 24/4/41 15/4/41
f 24/4/42 38/4/42 37/4/42
f 35/4/43 19/4/43 20/4/43
f 19/4/43 35/4/43 41/4/43
f 3/5/44 42/5/44 2/5/44
f 2/5/45 43/5/45 7/5/45
f 8/5/46 44/5/46 6/5/46
f 7/5/47 45/5/47 8/5/47
f 3/5/48 1/5/48 42/5/48
f 42/6/49 35/6/49 46/6/49
f 43/7/50 46/7/50 47/7/50
f 44/5/51 48/5/51 6/5/51
f 45/8/52 47/8/52 44/8/52
f 1/9/53 41/9/53 42/9/53
f 1/9/54 4/9/54 41/9/54
f 5/10/55 50/10/55 49/10/55
f 35/11/56 34/11/56 46/11/56
f 46/12/57 52/12/57 51/12/57
f 48/13/58 53/13/58 50/13/58
f 47/14/59 51/14/59 53/14/59
f 4/15/60 49/15/60 40/15/60
f 50/16/61 54/16/61 49/16/61
f 34/17/62 33/17/62 52/17/62
f 52/18/63 32/18/63 51/18/63
f 53/19/64 55/19/64 50/19/64
f 51/20/65 30/20/65 53/20/65
f 49/21/66 39/21/66 40/21/66
f 54/22/67 57/22/67 56/22/67
f 55/23/68 58/23/68 57/23/68
f 30/24/69 31/24/69 58/24/69
f 39/25/70 56/25/70 38/25/70
f 57/26/71 26/26/71 56/26/71
f 58/27/72 59/27/72 57/27/72
f 31/28/73 27/28/73 58/28/73
f 56/29/74 36/29/74 38/29/74
f 2/5/75 42/5/75 43/5/75
f 7/5/76 43/5/76 45/5/76
f 8/5/77 45/5/77 44/5/77
f 42/6/78 46/6/78 43/6/78
f 43/7/79 47/7/79 45/7/79
f 44/30/80 47/30/80 48/30/80
f 46/31/81 51/31/81 47/31/81
f 51/32/82 32/32/82 30/32/82
f 52/18/83 33/18/83 32/18/83
f 46/12/84 34/12/84 52/12/84
f 42/6/85 41/6/85 35/6/85
f 47/14/86 53/14/86 48/14/86
f 6/5/87 48/5/87 5/5/87
f 48/13/88 50/13/88 5/13/88
f 53/19/89 30/19/89 55/19/89
f 50/16/90 55/16/90 54/16/90
f 49/21/91 54/21/91 39/21/91
f 4/15/92 40/15/92 41/15/92
f 30/24/93 58/24/93 55/24/93
f 55/23/94 57/23/94 54/23/94
f 54/33/95 56/33/95 39/33/95
f 57/26/96 59/26/96 26/26/96
f 58/27/97 27/27/97 59/27/97
f 38/5/98 36/5/98 37/5/98
f 56/34/99 26/34/99 36/34/99
f 36/5/100 29/5/101 37/5/100
f 37/4/102 25/4/102 24/4/102
f 25/4/103 37/4/103 29/4/103
f 61/10/104 62/10/104 60/10/104
